<?xml version="1.0" encoding="utf-8"?>
<!-- Generator: Adobe Illustrator 22.1.0, SVG Export Plug-In . SVG Version: 6.00 Build 0)  -->
<svg version="1.1" xmlns="http://www.w3.org/2000/svg" xmlns:xlink="http://www.w3.org/1999/xlink" x="0px" y="0px"
	 viewBox="0 0 2448 3264" style="enable-background:new 0 0 2448 3264;" xml:space="preserve">
<style type="text/css">
	.st0{fill:#D5E2FF;}
	.st1{fill:#FBB03B;}
	.st2{fill:#E6E6E6;}
	.st3{fill:#CCCCCC;}
	.st4{fill:#F7931E;}
	.st5{fill:#1B1464;}
	.st6{fill:#F5F5F5;}
	.st7{display:none;}
	.st8{display:inline;fill:#2E3192;}
	.st9{fill:#B3B3B3;}
	.st10{fill:#FFFFFF;}
</style>
<g id="bag">
	<path class="st0" d="M1750,1360c0,0-234,580-192,846s160,302,244,294s226-68,228-334s-192-808-192-808h-24c0,0,88,394,24,496
		s-116-9-114-72c-1-80,14-250,48-422H1750z"/>
</g>
<g id="legs">
	<polygon class="st1" points="847,2070 784,2348 940,2922 1114,2967 1123,2967 967,2917 1155,2893 969,2903 1036,2870 952,2896 
		800,2345 882,2055 	"/>
	<path class="st1" d="M955,2021l-61,289c0,0,190,489,249,538l135,19l-115-31l189-53l-204,43c0,0-99-134-242-516l95-332L955,2021z"/>
</g>
<g id="body">
	<path class="st2" d="M1371.5,1454.5l-22,135c0,0-65,119-80,126s-129-46-129-46s-250,56-478,182c0,0-137.5,88.5-148,96
		s-230,148-230,148l178-64l-101,69c0,0,281.5-84.5,283-84s107,62,248,60c0,0,83-48,138-102s172-173,186-202c0,0,85,20,155-16
		c0,0-18,34-22,49s48-37,48-37s28-35,41-86s31.1-124,40-244.5C1487.5,1317.5,1371.5,1454.5,1371.5,1454.5z"/>
	<path class="st3" d="M1099,1680c0,0-204,52-346,122s-160,111-160,111s111,24,177,0s24,28,24,28s167-11,197-34s65-49,73-72
		S1095,1764,1099,1680z"/>
	<path d="M984,1911c0,0-169,69-274,63c0,0-17-1,0-10s69-44,92-51c0,0-123,51-226,61c0,0-20,2-6-10c0,0-51,22-85,17c0,0-29-2-6-11
		s79-37,79-37s-169,47-237,53c-0.2,0.2-40-4-6-30c23-17,189-39,210-46s36-11,86-35s70-34,70-34s-52,35-56,38s44-8,59-14
		s-30,14-33,18s70-16,84-22s-45,18-50,26s65-17,71-20s-67,28-58,30s79-16,79-16s-54,19-46,24s118-23,124-25s-31,12-33,22
		s64-13,70-17s-27,18-28,30s57-6,59-8s-23,16-17,16S984,1911,984,1911z"/>
	<path d="M643,2017c0,0-166,102-266,113s-18-34,8-50s65-44,65-44s-74,49-95,51s-21,2-21,2s2-4,16-10c0,0-63,24-87,21s25-23,38-29
		s166-93,166-93s-28,31-17,30s52-30,52-30s-33,27-27,34s62-30,62-30s-62,45-63,56s74-27,74-27s-59,33-49,36s54-26,54-26
		s-44,34-35,34S643,2017,643,2017z"/>
	<path class="st3" d="M1367.5,1479c0,0,72.6,5,108.8-13.7l2.7-41.3l-107.5,14.5L1367.5,1479z"/>
	<path class="st2" d="M1554.4,1278.7c0,0,80.6,110.3-69.4,157.3s-175,14-186-38s18-99,18-99L1554.4,1278.7"/>
	<g id="Layer_15">
	</g>
</g>
<g id="beak">
	<polygon class="st4" points="1517,1391 1542.6,1407 1759.1,1368.4 1542.4,1377 	"/>
	<polygon class="st1" points="1517,1391 1575,1329 1942,1355 	"/>
</g>
<g id="hat">
	<g id="Layer_8">
		<g>
			<path class="st5" d="M1066.4,1068.3c0,0-6.4-23.3,17.1-11.7c38-25.7,130-86.5,181.5-107.6c66-27,187-82,294-75c0,0,34,56,27,121
				s-42,224-42,224s37-29,64-40s86-36,95-36s25-6,28,1s-25,69-58,85s-120,55-184,69s-120,43.9-243.5,51.9
				C1245.5,1349.9,1092.9,1180.5,1066.4,1068.3z"/>
		</g>
	</g>
	<g id="Layer_9">
		<path class="st6" d="M1591,992c-11-10-26-21-45-23s-75-6-119,47s-8,131,27,149c43,27,105.2,17.9,103,18
			C1555.4,1183,1591,1052.8,1591,992z"/>
	</g>
	<g id="Layer_10" class="st7">
		<path class="st8" d="M1579,1041c0,0-15-24-30-26s-46-1-56,15s-17,29-3,51c0,0,6,8,29,9s19,20,10,20s-23,3-34-9s-20-5-22-3
			s-10,39,27,47s56-4,62-14s20-35,6-52s-48-15-38-28s27,0,29,2s12,4,16,0S1579,1041,1579,1041z"/>
	</g>
	<path class="st9" d="M1510.5,1152.5c0,0-2,7,4,4s30-111,28-113s-11-5-11,0S1510.5,1152.5,1510.5,1152.5z"/>
	<path class="st9" d="M1541,997l4,2v28l5-25c0,0,10,34,0,46s-15,15-15,15s-16-9-17-16s9-44,14-51l1,26L1541,997z"/>
</g>
<g id="Eye">
	<g id="Layer_5">
		<g>
			<line class="st10" x1="1265" y1="1430" x2="1321" y2="1406"/>
			<g>
				<path d="M1267.5,1434.3c18.7-8,37.3-16,56-24c5.9-2.5,0.8-11.1-5-8.6c-18.7,8-37.3,16-56,24
					C1256.6,1428.2,1261.7,1436.8,1267.5,1434.3L1267.5,1434.3z"/>
			</g>
		</g>
		<g>
			<line class="st10" x1="1307" y1="1479" x2="1338" y2="1430"/>
			<g>
				<path d="M1311.3,1481.5c10.3-16.3,20.7-32.7,31-49c3.5-5.5-5.2-10.5-8.6-5c-10.3,16.3-20.7,32.7-31,49
					C1299.2,1481.9,1307.9,1487,1311.3,1481.5L1311.3,1481.5z"/>
			</g>
		</g>
		<g>
			<path class="st10" d="M1312.5,1363.5c0,0-6,46,19,65s74,30,130-10s49-81,47-87s-24-52-77-60S1324.5,1301.5,1312.5,1363.5z"/>
			<g>
				<path d="M1307.5,1363.5c-1.7,13.2-0.7,27.5,2.9,40.3c2.7,9.6,7.4,19.1,14.8,26c6.7,6.2,15,10.6,23.4,13.9
					c49.5,20,107.2-5.8,141-43.3c17-18.8,33.8-50.6,21.2-76c-17.2-34.8-53.8-58.7-92.8-59c-48.1-0.3-89.4,33.8-105.3,78
					c-2.2,6.1-3.8,12.3-5.1,18.7c-1.3,6.3,8.4,9,9.6,2.7c8.7-43.5,41.1-81.2,86.2-88.4c37.9-6,74.9,13.7,94.7,45.9
					c1.3,2.1,2.5,4.3,3.7,6.5c0.4,0.8,0.8,1.6,1.2,2.5c0.8,1.7,0-0.2,0.5,1.1c1.1,3.3,1.1,4.5,1.3,7.7c0.7,14.3-4.5,28.2-12.1,40
					c-14.4,22.4-38,39.8-62.1,50.4c-20.2,9-43.2,12.8-65,7.9c-18.8-4.2-37.4-13.9-44.1-33c-4.6-13.1-5.7-28.2-4-42
					C1318.3,1357.1,1308.3,1357.2,1307.5,1363.5z"/>
			</g>
		</g>
	</g>
	<g id="Layer_4">
		<path d="M1471,1338c0,0-0.7,0-2,0c-8,0.3-38,3.1-38,30c0,31,12,40,29,39s42-17,46-32s-4-34-9-35S1471,1338,1471,1338z"/>
	</g>
</g>
</svg>
