<?xml version="1.0" encoding="utf-8"?>
<!-- Generator: Adobe Illustrator 22.1.0, SVG Export Plug-In . SVG Version: 6.00 Build 0)  -->
<svg version="1.1" id="Layer_1" xmlns="http://www.w3.org/2000/svg" xmlns:xlink="http://www.w3.org/1999/xlink" x="0px" y="0px"
	 viewBox="0 0 999 4341.2" style="enable-background:new 0 0 999 4341.2;" xml:space="preserve">
<style type="text/css">
	.st0{display:none;fill:#DDBB97;}
	.st1{display:none;fill:#C9A06F;}
	.st2{fill:#B5874B;}
	.st3{display:none;fill:#7C4D23;}
	.st4{fill:none;stroke:#000000;stroke-width:5;stroke-miterlimit:10;}
	.st5{fill:none;stroke:#000000;stroke-width:9;stroke-miterlimit:10;}
	.st6{display:none;}
	.st7{display:inline;}
	.st8{fill:#512C13;}
	.st9{display:inline;fill:#755732;}
	.st10{display:inline;fill:#F2D17E;}
	.st11{fill:#FFA1EB;}
	.st12{fill:#FFA4E7;}
	.st13{fill:#D887C7;}
	.st14{display:inline;fill:#DDBB97;}
	.st15{display:inline;fill:#CCA47D;}
	.st16{display:inline;fill:#C9A06F;}
	.st17{display:inline;fill:#B58D61;}
	.st18{fill:#A57A46;}
	.st19{display:inline;fill:#7C4D23;}
	.st20{display:inline;fill:#663510;}
	.st21{fill:#E291E0;}
	.st22{fill:#CE6ACE;}
</style>
<g id="face_1_">
	<path class="st0" d="M856.2,289.2l-8,194l50.7,38.8l-50.7,46l-43.3,198l-184,24.4l-54.7,163.3l-112.7-54.4l51.3-136.4l-51.3-114.2
		c0,0-88.7-21.6-92.7-89.2c-1.3-21.8,2.5-38.6,8.6-51.2c12.8-26.7,35.6-35.4,42.4-34.2c10,1.9-37,43.2-37,43.2l-56-138.9
		L856.2,289.2z"/>
	<path class="st1" d="M856.2,289.2l-8,194l50.7,38.8l-50.7,46l-43.3,198l-184,24.4l-54.7,163.3l-112.7-54.4l51.3-136.4l-51.3-114.2
		c0,0-88.7-21.6-92.7-89.2c-1.3-21.8,2.5-38.6,8.6-51.2c12.8-26.7,35.6-35.4,42.4-34.2c10,1.9-37,43.2-37,43.2l-56-138.9
		L856.2,289.2z"/>
	<path class="st2" d="M856.2,289.2l-8,194l50.7,38.8l-50.7,46l-43.3,198l-184,24.4l-54.7,163.3l-112.7-54.4l51.3-136.4l-51.3-114.2
		c0,0-88.7-21.6-92.7-89.2c-1.3-21.8,2.5-38.6,8.6-51.2c12.8-26.7,35.6-35.4,42.4-34.2c10,1.9-37,43.2-37,43.2l-56-138.9
		L856.2,289.2z"/>
	<path class="st3" d="M856.2,289.2l-8,194l50.7,38.8l-50.7,46l-43.3,198l-184,24.4l-54.7,163.3l-112.7-54.4l51.3-136.4l-51.3-114.2
		c0,0-88.7-21.6-92.7-89.2c-1.3-21.8,2.5-38.6,8.6-51.2c12.8-26.7,35.6-35.4,42.4-34.2c10,1.9-37,43.2-37,43.2l-56-138.9
		L856.2,289.2z"/>
</g>
<g id="face">
	<path d="M846.1,564.4c0,0-26.7,6-24,12C824.8,582.4,826.1,574.1,846.1,564.4z"/>
	<path class="st4" d="M371.6,513.3c0,0,61.8-90.3,134.1-8.6"/>
	<path class="st4" d="M827.3,656.6c-6.5,0.5-27.4-15-90.8,21.2"/>
	<polyline class="st5" points="735.1,517.4 736.6,472.9 740.7,520.2 745,472 747,522.1 752.3,468.8 754.6,525.7 759.9,466.9 	"/>
	<polyline class="st5" points="674.9,475.3 763.9,454.7 676.7,479.9 787.3,459.3 683.8,485.9 780.5,471.4 	"/>
</g>
<g id="hair">
	<g id="Layer_10" class="st6">
		<path class="st7" d="M855.1,317.7c0,0,16.9-190.7-316.1-173.7c-266,76-233.5,307.2-168.6,370.2l-5.1-5.8l4.1,14.3
			c0,0,29.9-44.4,65.3-45c35.3-0.6,66.7,27.9,78.3,42.8l16,27.3l-13-129l97,15.3l-43.2-87.3L685,425.3v-98l62,76.7l4.6-87.3
			l58.1,95.3l-4-114.7l46.7,92C852.3,389.4,858.5,325.4,855.1,317.7z"/>
		<path class="st7" d="M527.7,178.2c0,0,48.6-84.7,41.1-122.5C561.3,18,440.5-32.3,344.9,28.1s-126.3,130.8-90.8,166.1
			S404.7,252,404.7,252L527.7,178.2z"/>
	</g>
	<g id="Layer_10_copy">
		<path class="st8" d="M855.1,317.7c0,0,16.9-190.7-316.1-173.7c-266,76-233.5,307.2-168.6,370.2l-5.1-5.8l4.1,14.3
			c0,0,29.9-44.4,65.3-45c35.3-0.6,66.7,27.9,78.3,42.8l16,27.3l-13-129l97,15.3l-43.2-87.3L685,425.3v-98l62,76.7l4.6-87.3
			l58.1,95.3l-4-114.7l46.7,92C852.3,389.4,858.5,325.4,855.1,317.7z"/>
		<path class="st8" d="M527.7,178.2c0,0,48.6-84.7,41.1-122.5C561.3,18,440.5-32.3,344.9,28.1s-126.3,130.8-90.8,166.1
			S404.7,252,404.7,252L527.7,178.2z"/>
	</g>
	<g id="Layer_10_copy_2" class="st6">
		<path class="st9" d="M855.1,317.7c0,0,16.9-190.7-316.1-173.7c-266,76-233.5,307.2-168.6,370.2l-5.1-5.8l4.1,14.3
			c0,0,29.9-44.4,65.3-45c35.3-0.6,66.7,27.9,78.3,42.8l16,27.3l-13-129l97,15.3l-43.2-87.3L685,425.3v-98l62,76.7l4.6-87.3
			l58.1,95.3l-4-114.7l46.7,92C852.3,389.4,858.5,325.4,855.1,317.7z"/>
		<path class="st9" d="M527.7,178.2c0,0,48.6-84.7,41.1-122.5C561.3,18,440.5-32.3,344.9,28.1s-126.3,130.8-90.8,166.1
			S404.7,252,404.7,252L527.7,178.2z"/>
	</g>
	<g id="Layer_10_copy_3" class="st6">
		<path class="st10" d="M855.1,317.7c0,0,16.9-190.7-316.1-173.7c-266,76-233.5,307.2-168.6,370.2l-5.1-5.8l4.1,14.3
			c0,0,29.9-44.4,65.3-45c35.3-0.6,66.7,27.9,78.3,42.8l16,27.3l-13-129l97,15.3l-43.2-87.3L685,425.3v-98l62,76.7l4.6-87.3
			l58.1,95.3l-4-114.7l46.7,92C852.3,389.4,858.5,325.4,855.1,317.7z"/>
		<path class="st10" d="M527.7,178.2c0,0,48.6-84.7,41.1-122.5C561.3,18,440.5-32.3,344.9,28.1s-126.3,130.8-90.8,166.1
			S404.7,252,404.7,252L527.7,178.2z"/>
	</g>
	<path class="st11" d="M545.4,143.7l7.9-17.7c0,0-118.2,19.5-194.2,115l14.5,3.8C373.6,244.8,438.4,166.4,545.4,143.7z"/>
</g>
<g id="dress">
	<path class="st12" d="M470,855.4c0,0-140.8,270.3-116,378.3c24.8,108,56.5,177,56.5,177L139,2946h860L608.8,1458.8
		c0,0,145-177,133-234c-12-57-158-323.7-158-323.7S531.2,864.1,470,855.4z"/>
	<polygon class="st13" points="631.3,1430.2 469.4,1430.2 456.1,1516.2 623.9,1516.2 608.8,1458.8 	"/>
</g>
<g id="hand">
	<polygon class="st0" points="346.1,2197.2 354,2299.2 324.5,2570.7 143.5,2693.7 37.5,2659.2 211.5,2570.7 48,2581.2 0,2525.7 
		211.5,2504.7 87,2464.2 129,2309.7 216,2297.7 236.8,2210.8 	"/>
	<polygon class="st1" points="346.1,2197.2 354,2299.2 324.5,2570.7 143.5,2693.7 37.5,2659.2 211.5,2570.7 48,2581.2 0,2525.7 
		211.5,2504.7 87,2464.2 129,2309.7 216,2297.7 236.8,2210.8 	"/>
	<polygon class="st2" points="346.1,2197.2 354,2299.2 324.5,2570.7 143.5,2693.7 37.5,2659.2 211.5,2570.7 48,2581.2 0,2525.7 
		211.5,2504.7 87,2464.2 129,2309.7 216,2297.7 236.8,2210.8 	"/>
	<polygon class="st3" points="346.1,2197.2 354,2299.2 324.5,2570.7 143.5,2693.7 37.5,2659.2 211.5,2570.7 48,2581.2 0,2525.7 
		211.5,2504.7 87,2464.2 129,2309.7 216,2297.7 236.8,2210.8 	"/>
</g>
<g id="arm_x2F_legs">
	<g id="arms_x2F_legs" class="st6">
		<path class="st14" d="M346.1,2197.2c0,0,176.7-1059.5,170.7-1128.5c-6-69-40.7-150.9-107.4-81.4S236.8,2210.8,236.8,2210.8
			L346.1,2197.2z"/>
		<polygon class="st14" points="415,2946 415,4341.2 875,4341.2 550,4286 607,2946 		"/>
		<polygon class="st15" points="667,2946 569,4262 875,4318 757,4318 550,4286 607,2946 		"/>
	</g>
	<g id="arms_x2F_legs_copy" class="st6">
		<path class="st16" d="M346.1,2197.2c0,0,176.7-1059.5,170.7-1128.5c-6-69-40.7-150.9-107.4-81.4S236.8,2210.8,236.8,2210.8
			L346.1,2197.2z"/>
		<polygon class="st16" points="415,2946 415,4341.2 875,4341.2 550,4286 607,2946 		"/>
		<polygon class="st17" points="667,2946 569,4262 875,4318 757,4318 550,4286 607,2946 		"/>
	</g>
	<g id="arms_x2F_legs_copy_2">
		<path class="st2" d="M346.1,2197.2c0,0,176.7-1059.5,170.7-1128.5c-6-69-40.7-150.9-107.4-81.4S236.8,2210.8,236.8,2210.8
			L346.1,2197.2z"/>
		<polygon class="st2" points="415,2946 415,4341.2 875,4341.2 550,4286 607,2946 		"/>
		<polygon class="st18" points="667,2946 569,4262 875,4318 757,4318 550,4286 607,2946 		"/>
	</g>
	<g id="arms_x2F_legs_copy_3" class="st6">
		<path class="st19" d="M346.1,2197.2c0,0,176.7-1059.5,170.7-1128.5c-6-69-40.7-150.9-107.4-81.4S236.8,2210.8,236.8,2210.8
			L346.1,2197.2z"/>
		<polygon class="st19" points="415,2946 415,4341.2 875,4341.2 550,4286 607,2946 		"/>
		<polygon class="st20" points="667,2946 569,4262 875,4318 757,4318 550,4286 607,2946 		"/>
	</g>
</g>
<g id="shoe">
	<polyline class="st21" points="415,4237 551.9,4240.3 550,4286 875,4341.2 415,4341.2 415,4237 	"/>
	<polygon class="st22" points="552.6,4224.3 571.8,4224.3 569,4262 875,4318 751.3,4320.2 550,4286 	"/>
</g>
</svg>
