<?xml version="1.0" encoding="utf-8"?>
<!-- Generator: Adobe Illustrator 22.1.0, SVG Export Plug-In . SVG Version: 6.00 Build 0)  -->
<svg version="1.1" xmlns="http://www.w3.org/2000/svg" xmlns:xlink="http://www.w3.org/1999/xlink" x="0px" y="0px"
	 viewBox="0 0 1383 2774.8" style="enable-background:new 0 0 1383 2774.8;" xml:space="preserve">
<style type="text/css">
	.st0{display:none;}
	.st1{display:inline;}
	.st2{fill:#DDBB97;}
	.st3{fill:#CCA47D;}
	.st4{fill:none;stroke:#000000;stroke-width:4;stroke-miterlimit:10;}
	.st5{fill:#C9A06F;}
	.st6{fill:#B58D61;}
	.st7{fill:#B5874B;}
	.st8{fill:#A57A46;}
	.st9{fill:#7C4D23;}
	.st10{fill:#663510;}
	.st11{display:inline;fill:#DDBB97;}
	.st12{display:inline;fill:#CCA47D;}
	.st13{display:inline;fill:#C9A06F;}
	.st14{display:inline;fill:#B58D61;}
	.st15{display:inline;fill:#B5874B;}
	.st16{display:inline;fill:#A57A46;}
	.st17{fill:#35312E;}
	.st18{fill:#727272;}
	.st19{fill:#EFEFEF;}
	.st20{fill:#CCCCCC;}
	.st21{fill:#9B9B9B;}
	.st22{fill:#AA9B79;}
	.st23{fill:#938161;}
	.st24{fill:#9A9FE8;}
	.st25{fill:#4B5399;}
	.st26{fill:#826D4A;}
	.st27{fill:#283166;}
	.st28{display:inline;fill:#F2D17E;}
	.st29{display:inline;fill:#755732;}
	.st30{fill:#512C13;}
	.st31{display:none;fill:#DDBB97;}
	.st32{display:none;fill:#C9A06F;}
	.st33{display:none;fill:#B5874B;}
	.st34{fill:#22374C;}
	.st35{fill:#667CD8;}
	.st36{fill:#344784;}
	.st37{fill:#CFDDFF;}
	.st38{fill:#9DB0D6;}
	.st39{fill:#D2E1F7;}
</style>
<g id="skin">
	<g id="skin1" class="st0">
		<g id="face" class="st1">
			<polygon class="st2" points="563.5,781.2 548,917.2 651.5,910.7 670,785.2 			"/>
			<path class="st3" d="M564,766.2l-5.2,56c41,9.8,76.4,10.9,105.4,2l11.2-77L564,766.2z"/>
			<path class="st2" d="M914,315.4c0,0,20.6,72.3,10.1,144.8c0,0,42.4-15.5,80.9-4c0,0,5,49-24,70l-52.5-2.5c0,0-4.5,179-81.5,223
				s-173,88-337,40s-131-162-131-162l156.1-314l264.2-50.7L914,315.4z"/>
			<path class="st4" d="M921.5,598.2c0,0-32.2,9.4-104,23c-73,13.8-157.5,11.6-192-6"/>
		</g>
		<g id="legs_x2F_arms" class="st1">
		</g>
	</g>
	<g id="skin1_copy" class="st0">
		<g id="face_copy" class="st1">
			<polygon class="st5" points="563.5,781.2 548,917.2 651.5,910.7 670,785.2 			"/>
			<path class="st6" d="M564,766.2l-5.2,56c41,9.8,76.4,10.9,105.4,2l11.2-77L564,766.2z"/>
			<path class="st5" d="M914,315.4c0,0,20.6,72.3,10.1,144.8c0,0,42.4-15.5,80.9-4c0,0,5,49-24,70l-52.5-2.5c0,0-4.5,179-81.5,223
				s-173,88-337,40s-131-162-131-162l156.1-314l264.2-50.7L914,315.4z"/>
			<path class="st4" d="M921.5,598.2c0,0-32.2,9.4-104,23c-73,13.8-157.5,11.6-192-6"/>
		</g>
	</g>
	<g id="skin1_copy_2" class="st0">
		<g id="face_copy_2" class="st1">
			<polygon class="st7" points="563.5,781.2 548,917.2 651.5,910.7 670,785.2 			"/>
			<path class="st8" d="M564,766.2l-5.2,56c41,9.8,76.4,10.9,105.4,2l11.2-77L564,766.2z"/>
			<path class="st7" d="M914,315.4c0,0,20.6,72.3,10.1,144.8c0,0,42.4-15.5,80.9-4c0,0,5,49-24,70l-52.5-2.5c0,0-4.5,179-81.5,223
				s-173,88-337,40s-131-162-131-162l156.1-314l264.2-50.7L914,315.4z"/>
			<path class="st4" d="M921.5,598.2c0,0-32.2,9.4-104,23c-73,13.8-157.5,11.6-192-6"/>
		</g>
	</g>
	<g id="skin1_copy_3">
		<g id="face_copy_3">
			<polygon class="st9" points="563.5,781.2 548,917.2 651.5,910.7 670,785.2 			"/>
			<path class="st10" d="M564,766.2l-5.2,56c41,9.8,76.4,10.9,105.4,2l11.2-77L564,766.2z"/>
			<path class="st9" d="M914,315.4c0,0,20.6,72.3,10.1,144.8c0,0,42.4-15.5,80.9-4c0,0,5,49-24,70l-52.5-2.5c0,0-4.5,179-81.5,223
				s-173,88-337,40s-131-162-131-162l156.1-314l264.2-50.7L914,315.4z"/>
			<path class="st4" d="M921.5,598.2c0,0-32.2,9.4-104,23c-73,13.8-157.5,11.6-192-6"/>
		</g>
		<g id="legs_x2F_arms_copy_3">
		</g>
	</g>
	<g id="arms_x2F_legs" class="st0">
		<path class="st11" d="M550,1226.7l-34.2,480.1l-13.7,95l-24.2-15.2c0,0-80.7,74-271.3,170c0,0,104.7-108.7,118-134l-159.3,39.3
			l100-58l-27.3,3.3c0,0,139.3-97.3,175.3-112l68.3-468.7H550z"/>
		<polygon class="st11" points="619.3,1875.4 502.2,1801.9 515.8,1706.9 515,1718.7 561.3,1764.7 		"/>
		<polygon class="st12" points="769.6,2114.8 757.8,2678.7 979,2689.7 690,2689.7 670.2,2114.8 		"/>
		<polygon class="st11" points="592.6,2123.8 592.6,2774.8 690.1,2774.8 946.6,2774.8 700,2768.8 742.6,2114.8 		"/>
	</g>
	<g id="arms_x2F_legs_1_" class="st0">
		<path class="st13" d="M550,1226.7l-34.2,480.1l-13.7,95l-24.2-15.2c0,0-80.7,74-271.3,170c0,0,104.7-108.7,118-134l-159.3,39.3
			l100-58l-27.3,3.3c0,0,139.3-97.3,175.3-112l68.3-468.7H550z"/>
		<polygon class="st13" points="619.3,1875.4 502.2,1801.9 515.8,1706.9 515,1718.7 561.3,1764.7 		"/>
		<polygon class="st14" points="769.6,2114.8 757.8,2678.7 979,2689.7 690,2689.7 670.2,2114.8 		"/>
		<polygon class="st13" points="592.6,2123.8 592.6,2774.8 690.1,2774.8 946.6,2774.8 700,2768.8 742.6,2114.8 		"/>
	</g>
	<g id="arms_x2F_legs_2_" class="st0">
		<path class="st15" d="M550,1226.7l-34.2,480.1l-13.7,95l-24.2-15.2c0,0-80.7,74-271.3,170c0,0,104.7-108.7,118-134l-159.3,39.3
			l100-58l-27.3,3.3c0,0,139.3-97.3,175.3-112l68.3-468.7H550z"/>
		<polygon class="st15" points="619.3,1875.4 502.2,1801.9 515.8,1706.9 515,1718.7 561.3,1764.7 		"/>
		<polygon class="st16" points="769.6,2114.8 757.8,2678.7 979,2689.7 690,2689.7 670.2,2114.8 		"/>
		<polygon class="st15" points="592.6,2123.8 592.6,2774.8 690.1,2774.8 946.6,2774.8 700,2768.8 742.6,2114.8 		"/>
	</g>
	<g id="arms_x2F_legs_3_">
		<path class="st9" d="M550,1226.7l-34.2,480.1l-13.7,95l-24.2-15.2c0,0-80.7,74-271.3,170c0,0,104.7-108.7,118-134l-159.3,39.3
			l100-58l-27.3,3.3c0,0,139.3-97.3,175.3-112l68.3-468.7H550z"/>
		<polygon class="st9" points="619.3,1875.4 502.2,1801.9 515.8,1706.9 515,1718.7 561.3,1764.7 		"/>
		<polygon class="st10" points="769.6,2114.8 757.8,2678.7 979,2689.7 690,2689.7 670.2,2114.8 		"/>
		<polygon class="st9" points="592.6,2123.8 592.6,2774.8 690.1,2774.8 946.6,2774.8 700,2768.8 742.6,2114.8 		"/>
	</g>
</g>
<g id="eyes">
	<path d="M793.7,418.7c0,0-24-4.5-29.5,44s4,44,7.5,41.5s25-33,27-54S796.2,418.8,793.7,418.7z"/>
</g>
<g id="clothe4s">
	<g id="backshoe">
		<polygon class="st17" points="712,2584.8 759.9,2576.7 757.8,2678.7 979,2689.7 705.1,2689.7 		"/>
		<polygon class="st18" points="760.4,2554 736.5,2569.7 740.8,2676 757.8,2678.7 		"/>
		<polygon class="st19" points="734.2,2584.6 734.2,2591.1 759.5,2598.7 759.5,2588.9 		"/>
		<polygon class="st19" points="734.2,2600.1 735.8,2607.4 759.8,2584.6 760,2575.7 		"/>
		<polygon class="st19" points="736,2612 736,2618.5 758.9,2628.1 759,2619.2 		"/>
		<polygon class="st19" points="736.3,2627.2 759.3,2606.3 759.1,2615.6 736.5,2634.1 		"/>
		<polygon class="st19" points="736.5,2637.7 758.5,2644.5 758.3,2651.5 736,2642.2 		"/>
		<polygon class="st19" points="736.5,2649.8 758.8,2632.7 758.6,2639.7 736.5,2655.2 		"/>
		<polygon class="st19" points="737.9,2662 758,2667.2 757.8,2672.5 737.3,2665.5 		"/>
		<polygon class="st19" points="738.1,2675.9 758,2656.8 758,2663 741,2679.1 		"/>
	</g>
	<g id="frontshoe">
		<polygon class="st17" points="592.6,2636.2 709.2,2627.2 700,2768.8 946.6,2774.8 592.6,2774.8 		"/>
		<polygon class="st18" points="670.2,2612.7 710.6,2605.3 700,2768.8 670.2,2757.2 		"/>
		<path class="st20" d="M624.5,2721.7c0,0-34,9-21.5,31c12.5,22,43.5,11.5,44.5,9s9.5-14,5-25.5S630.9,2719.4,624.5,2721.7z"/>
		<polygon class="st21" points="622.9,2736.3 628.3,2721.2 633,2738.8 653.5,2739.9 634.1,2746.6 638.2,2765.4 627,2750.4 
			609.1,2760.1 617.9,2745 605.1,2732.4 		"/>
		<polygon class="st19" points="660.5,2654.8 662,2664.8 708.4,2652.5 709.2,2639.7 		"/>
		<polygon class="st19" points="660.5,2636.5 660.5,2645 706.4,2670.5 707,2660.7 		"/>
		<polygon class="st19" points="663.3,2684.5 663.3,2695.7 705.5,2684.5 706.2,2673.5 		"/>
		<polygon class="st19" points="663.3,2671.7 662,2679.5 704.2,2704.7 704.8,2695.7 		"/>
		<polygon class="st19" points="665.3,2706.1 665.3,2714.6 702.6,2728.1 703.3,2718.3 		"/>
		<polygon class="st19" points="663.3,2723.9 665.3,2733.9 703.3,2716.4 703.9,2708.2 		"/>
		<polygon class="st19" points="666.3,2739.2 665.3,2746.7 700.8,2756.7 701.4,2748 		"/>
		<polygon class="st19" points="668.7,2760.4 676,2763.7 701.6,2744.9 702.2,2735.4 		"/>
	</g>
	<g id="clothes">
		<path class="st22" d="M856,2108.7c0,0-150,88-398,0l44.2-306.8l117.2,73.5l-58-110.7l-46.3-46l0.8-11.9l18.2-126.1l242,11
			L856,2108.7z"/>
		<polyline class="st23" points="757.8,1612.1 782.7,1764.7 803.4,1768.7 778.8,1609.7 757.8,1612.1 		"/>
		<path class="st24" d="M522.1,1619.4c0,0,193.8,4.8,297-16.1L675.5,936.2h-164c0,0-7.5-4.5-14.5,15.5s-66,311-70,315h120.2
			L522.1,1619.4z"/>
		<path class="st25" d="M511.5,893.7c0,0,97.5,32,171-10.5c0,0-3.5,51-7,53s-150,2.5-164,0C511.5,936.2,505,920.2,511.5,893.7z"/>
		<path class="st25" d="M427,1266.7l12.9-54l183.1-2.5l4,53.5C627,1263.7,512,1271.2,427,1266.7S427,1266.7,427,1266.7L427,1266.7"
			/>
		<path class="st23" d="M603,1844.3h143l28,202.4c0,0-119,38-201,7l21-194.2l25.3,15.9L603,1844.3z"/>
		<polygon class="st26" points="749.4,1869.2 678.7,1927.4 591,1887.3 594,1859.5 619.3,1875.4 603,1844.3 746,1844.3 		"/>
		<path class="st27" d="M511.5,893.7c0,0,31.8-7.3,39.9-6.5l-1.7,14.9C549.7,902.2,534.5,900.5,511.5,893.7z"/>
		<path class="st27" d="M682.5,883.2c0,0-19.4-0.8-26.9,0l-1.9,12.8C653.9,896.1,673.8,889.1,682.5,883.2z"/>
	</g>
</g>
<g id="hair">
	<g id="black_copy_3" class="st0">
		<path class="st28" d="M226,310.7c0,0-27,44-190,81c0,0,101,40,163,41c0,0-7,4-34,12c0,0,21,5,31,0c0,0-94,91-196,145
			c0,0,118,19,174,13c0,0-80,86-110,110c0,0,2,11,65-10s143-28,143-28s-24,76-23,94c0,0,36-26,62-53c0,0-25,39-38,53
			c0,0,80-51,98-82s217-348,217-348l-21,102l87-100l-12,71c0,0,59-43.4,85-108.2c0,0,69,31.2,84,70.2c0,0,15-30.5,8-76.2
			c0,0,28,30.2,28,37.2c0,0,4.1-21.8,3-37.2c0,0,18.7,44.6,151.3,53.2c0,0-70.7-78-96-83.3C880,262.1,226,310.7,226,310.7"/>
		<polygon class="st28" points="431.2,567.7 405.1,735.7 391,674.7 336.8,722.5 		"/>
	</g>
	<g id="black_copy_2" class="st0">
		<path class="st29" d="M226,310.7c0,0-27,44-190,81c0,0,101,40,163,41c0,0-7,4-34,12c0,0,21,5,31,0c0,0-94,91-196,145
			c0,0,118,19,174,13c0,0-80,86-110,110c0,0,2,11,65-10s143-28,143-28s-24,76-23,94c0,0,36-26,62-53c0,0-25,39-38,53
			c0,0,80-51,98-82s217-348,217-348l-21,102l87-100l-12,71c0,0,59-43.4,85-108.2c0,0,69,31.2,84,70.2c0,0,15-30.5,8-76.2
			c0,0,28,30.2,28,37.2c0,0,4.1-21.8,3-37.2c0,0,18.7,44.6,151.3,53.2c0,0-70.7-78-96-83.3C880,262.1,226,310.7,226,310.7"/>
		<polygon class="st29" points="431.2,567.7 405.1,735.7 391,674.7 336.8,722.5 		"/>
	</g>
	<g id="black">
		<path class="st30" d="M226,310.7c0,0-27,44-190,81c0,0,101,40,163,41c0,0-7,4-34,12c0,0,21,5,31,0c0,0-94,91-196,145
			c0,0,118,19,174,13c0,0-80,86-110,110c0,0,2,11,65-10s143-28,143-28s-24,76-23,94c0,0,36-26,62-53c0,0-25,39-38,53
			c0,0,80-51,98-82s217-348,217-348l-21,102l87-100l-12,71c0,0,59-43.4,85-108.2c0,0,69,31.2,84,70.2c0,0,15-30.5,8-76.2
			c0,0,28,30.2,28,37.2c0,0,4.1-21.8,3-37.2c0,0,18.7,44.6,151.3,53.2c0,0-70.7-78-96-83.3C880,262.1,226,310.7,226,310.7"/>
		<polygon class="st30" points="431.2,567.7 405.1,735.7 391,674.7 336.8,722.5 		"/>
	</g>
	<g id="black_copy" class="st0">
		<path class="st1" d="M226,310.7c0,0-27,44-190,81c0,0,101,40,163,41c0,0-7,4-34,12c0,0,21,5,31,0c0,0-94,91-196,145
			c0,0,118,19,174,13c0,0-80,86-110,110c0,0,2,11,65-10s143-28,143-28s-24,76-23,94c0,0,36-26,62-53c0,0-25,39-38,53
			c0,0,80-51,98-82s217-348,217-348l-21,102l87-100l-12,71c0,0,59-43.4,85-108.2c0,0,69,31.2,84,70.2c0,0,15-30.5,8-76.2
			c0,0,28,30.2,28,37.2c0,0,4.1-21.8,3-37.2c0,0,18.7,44.6,151.3,53.2c0,0-70.7-78-96-83.3C880,262.1,226,310.7,226,310.7"/>
		<polygon class="st1" points="431.2,567.7 405.1,735.7 391,674.7 336.8,722.5 		"/>
	</g>
</g>
<g id="ear">
	<path class="st31" d="M348.5,517.7c0,0-59-42.5-87,34.5s30.1,146.1,81.5,139c28.1-11.3,30.3-21.8,30.3-24.5L348.5,517.7z"/>
	<path class="st32" d="M348.5,517.7c0,0-59-42.5-87,34.5s30.1,146.1,81.5,139c28.1-11.3,30.3-21.8,30.3-24.5L348.5,517.7z"/>
	<path class="st33" d="M348.5,517.7c0,0-59-42.5-87,34.5s30.1,146.1,81.5,139c28.1-11.3,30.3-21.8,30.3-24.5L348.5,517.7z"/>
	<path class="st9" d="M348.5,517.7c0,0-59-42.5-87,34.5s30.1,146.1,81.5,139c28.1-11.3,30.3-21.8,30.3-24.5L348.5,517.7z"/>
</g>
<g id="Cap">
	<path class="st34" d="M539,8.2c0,0-10.7-9.1,3-8.1s31.7,1.2,20.7,8.1S539,8.2,539,8.2"/>
	<path class="st35" d="M226,310.7c0,0-44-164,48-237s241-73,351-57s242,36,278,148c0,0,23,45,21,113l459-17l-10,7L226,310.7z"/>
	<path class="st36" d="M215.5,220.7c0,0,36.8-55.3,128.5-11c0,0,5,26,4.3,36.3c0,0-83.3-6.7-129,11.7l-1.9,2.3
		C217.4,260.1,213.8,238.7,215.5,220.7z"/>
	<path class="st37" d="M217.4,260.1c-3.2-4.3,50.8-25.1,130.9-14c0,0,71.2-14.8,79.7-12.8s-1.5,10-4,27s4,32-7.5,38.5
		s-190.5,12-190.5,12S218.4,303.6,217.4,260.1z"/>
	<path class="st38" d="M386.3,302.1c0,0,35.5-5,36-43.7c0,0,1-14.8,8.8-23.1c0,0,0.3,2.6-1.7,7.4c-2,4.8-7,15.1-6,29.8
		s2.5,28.3-18.4,28.6c0,0-22,2.2-25.3,2.4C376.3,303.8,386.3,302.1,386.3,302.1z"/>
	<polygon class="st38" points="349.5,244.7 305.7,241.1 308.2,309.1 354,307.1 	"/>
	<polygon class="st39" points="924,277.7 579,297.5 1373,267.7 1383,260.7 	"/>
	<path class="st39" d="M550.6,9.3c0,0,53.4,76.3,28.4,288.2l345-19.8c0,0,6.7-171.8-121.6-218.4S597.1,10.3,550.6,9.3z"/>
</g>
</svg>
