<?xml version="1.0" encoding="utf-8"?>
<!-- Generator: Adobe Illustrator 22.1.0, SVG Export Plug-In . SVG Version: 6.00 Build 0)  -->
<svg version="1.1" id="Layer_1" xmlns="http://www.w3.org/2000/svg" xmlns:xlink="http://www.w3.org/1999/xlink" x="0px" y="0px"
	 viewBox="0 0 1220.8 1695.4" style="enable-background:new 0 0 1220.8 1695.4;" xml:space="preserve">
<style type="text/css">
	.st0{display:none;}
	.st1{display:inline;fill:#FF7FF8;}
	.st2{display:inline;fill:#FFBFF6;}
	.st3{display:inline;fill:none;stroke:#FF7FF8;stroke-width:8;stroke-miterlimit:10;}
	.st4{display:inline;fill:#FFE1FB;}
	.st5{display:inline;fill:#FFF3FD;}
	.st6{display:inline;fill:none;stroke:#FFAAFD;stroke-width:8;stroke-miterlimit:10;}
	.st7{fill:#663510;}
	.st8{display:inline;fill:#A57A46;}
	.st9{display:inline;fill:#B58D61;}
	.st10{display:inline;fill:#CCA47D;}
	.st11{fill:#AAC4FF;}
	.st12{fill:#BFE1FF;}
	.st13{fill:none;stroke:#AAC4FF;stroke-width:8;stroke-miterlimit:10;}
	.st14{fill:#FEE9FF;}
	.st15{fill:#7C4D23;}
	.st16{display:inline;fill:#B5874B;}
	.st17{display:inline;fill:#C9A06F;}
	.st18{display:inline;fill:#DDBB97;}
	.st19{fill:#4C2E0C;}
	.st20{fill:#D4FFEA;}
	.st21{fill:#E9FFF5;}
	.st22{fill:none;stroke:#7BE0FF;stroke-width:8;stroke-miterlimit:10;}
	.st23{display:inline;fill:#FF94F3;}
	.st24{display:inline;fill:#FFE9FA;}
	.st25{display:inline;fill:#FFAAFD;}
</style>
<g id="baby_clothesG" class="st0">
	<path class="st1" d="M365.2,899.6c0,0-147.5-38-146-78s73,670,73,670l-11,38l127.1-4l112.9-316L365.2,899.6z"/>
	<path class="st2" d="M245.8,64.7c0,0,193.5-100.5,352.5-51s267,145.5,274.5,175.5s79.5,195,46.5,292.5S758.8,810.2,758.8,810.2
		s199.5,117,316.5,303s189.4,346.5,100,513.5c-51.6,52-311,29.5-311,29.5l-66.5-78l18-70.5l-402,18l-43.1-626c0,0,159,19.9,209-67
		s102.9-338.9,105-410.9s16-142.1-126-260.1C558.7,161.6,406.9,75.8,245.8,64.7z"/>
	<path class="st2" d="M430.2,917.6c0,0-123-24-211-96l42.3,370.2c0,0,12.8,95.8,207.2,135.8s310.5-280,310.5-280L430.2,917.6z"/>
	<line class="st3" x1="679.2" y1="1153.6" x2="633.8" y2="1382.3"/>
	<line class="st3" x1="853.2" y1="1482.6" x2="1031.2" y2="1402.9"/>
</g>
<g id="rufflesG" class="st0">
	<path class="st4" d="M289.9,1468.7h120.6c0,0,80.7,42.2,78.7,57.5s-51.3-3.3-51.3-3.3s31.3,95.8,4.3,91.9s-61.6-81.2-61.6-81.2
		s-3.3,58.7-32,65.3c-28.7,6.7-40.7-30.4-30.7-49.5s18.7-29.1,18.7-29.1s-86.7,86-111.3,60s57.3-75.3,57.3-75.3s-59.4,23.3-63.3,12
		C215.2,1505.6,289.9,1468.7,289.9,1468.7z"/>
	<path class="st5" d="M853.2,1482.6c0,0-78-65-89-55s27,79,53,83c0,0-59-26-73-24s35,65.8,54.5,66.4s-51.5,1.6-65.5,28.6
		s86,17,86,17s-80,22-77,45s86,0,86,0s-68,30-63,48s96.5-34.4,96.5-34.4L853.2,1482.6z"/>
	<path class="st5" d="M403.5,1459.6h218.7c0,0,58,22.7,58.7,47.3c0.7,24.7-58,15.3-64,5.3s38,74,14.7,82.7s-74.7-57.3-75.3-65.3
		s22.7,103.3-1.3,109.3s-82-88-80-102s-26,95.3-54.7,98s-7.3-105.3-7.3-105.3s-55.3,65.3-81.3,45.3S403.5,1459.6,403.5,1459.6z"/>
	<path class="st5" d="M666.9,515.4c0,0,54.3-152.5-8.4-254.4C595.8,159.2,476.2,89.6,225.2,50.6c0,0-146.5,42.5-132,65
		s160.5-9,164.5-15.5c4-6.5-44,40-5.5,49s149-17,149-17s-32,26-26,39s91.3,37.2,176.3,6.5c0,0-94.7,46-55.3,82.7
		c39.3,36.7,127.3,8.3,127.3,8.3s-77,43.3-68.7,85s55.7,46.7,88.7,41.3l26-5.7c0,0-91.3,36.7-73,80.3
		C614.9,513.3,666.9,515.4,666.9,515.4z"/>
</g>
<g id="TieG" class="st0">
	<path class="st6" d="M313.2,853.6c0,0-233,106-246,202s126,17,165-45S313.2,853.6,313.2,853.6z"/>
	<path class="st6" d="M319.2,929.6c0,0,23,103-62,217c0,0,64.7-211,64.8-247"/>
	<path class="st6" d="M376.2,837.6c0,0,220,101,216,194s-224-64-247-115"/>
	<path class="st6" d="M430.2,1162.6c0,0-0.4-115.9-70-207"/>
</g>
<g>
	<g id="back_foot">
		<g id="skin0_1_">
			<path class="st7" d="M548.6,1511l94.5-82.6c0,0-13.6,166.8-25.5,196.6s-75.9,0-75.9,0L548.6,1511z"/>
		</g>
		<g id="skin1_1_" class="st0">
			<path class="st8" d="M548.6,1509.1l94.5-82.6c0,0-13.6,166.8-25.5,196.6s-75.9,0-75.9,0L548.6,1509.1z"/>
		</g>
		<g id="skin2_1_" class="st0">
			<path class="st9" d="M548.6,1511l94.5-82.6c0,0-13.6,166.8-25.5,196.6s-75.9,0-75.9,0L548.6,1511z"/>
		</g>
		<g id="skin3_1_" class="st0">
			<path class="st10" d="M548.6,1511l94.5-82.6c0,0-13.6,166.8-25.5,196.6s-75.9,0-75.9,0L548.6,1511z"/>
		</g>
	</g>
	<g id="baby_clothesB">
		<path class="st11" d="M697.5,1209.6l114.3,316l128.7,4l-11.1-38c0,0,72.4-710,73.9-670s-147.9,78-147.9,78L697.5,1209.6z"/>
		<path class="st12" d="M664.9,161.7c-143.8,118-129.7,188.1-127.6,260.1S593,745.7,643.6,832.7c50.7,86.9,211.7,67,211.7,67
			l-43.7,626l-407.1-18l18.2,70.5l-67.3,78c0,0-262.7,22.5-314.9-29.5c-90.5-167-17.2-327.5,101.3-513.5s320.5-303,320.5-303
			s-129.1-231-162.5-328.5s39.5-262.5,47.1-292.5s117-126,278-175.5s357,51,357,51C818.8,75.8,665.1,161.6,664.9,161.7z"/>
		<path class="st12" d="M436.2,1047.6c0,0,117.4,320,314.4,280s209.9-135.8,209.9-135.8l42.8-370.2c-89.1,72-213.7,96-213.7,96
			L436.2,1047.6z"/>
		<line class="st13" x1="583.5" y1="1382.3" x2="537.4" y2="1153.6"/>
		<line class="st13" x1="181" y1="1402.9" x2="361.2" y2="1482.6"/>
		<path class="st14" d="M621,469.5c18.6-43.6-73.9-80.3-73.9-80.3l26.3,5.7c33.4,5.4,81.4,0.4,89.8-41.3c8.5-41.7-69.5-85-69.5-85
			s89.2,28.4,129-8.3c39.9-36.7-56-82.7-56-82.7c86.1,30.7,172.5,6.5,178.6-6.5c6.1-13-26.3-39-26.3-39s111.9,26,150.9,17
			s-9.7-55.5-5.6-49c4.1,6.5,151.9,38,166.6,15.5c14.7-22.5-133.7-65-133.7-65C743.1,89.6,621.9,159.2,558.4,261
			c-63.5,101.9-8.5,254.4-8.5,254.4S602.4,513.1,621,469.5z"/>
	</g>
	<g id="skin_colors">
		<g id="skin0">
			<path class="st7" d="M739.9,1476.1c0,0,44.2,162,66.7,172.5s151.5,4.5,168,0s-3-25.5-28.5-33.7s-31.5-105.8-31.5-105.8
				L739.9,1476.1z"/>
			<path class="st15" d="M692.3,147.7L540.3,415c0,0,28.4,373.6,138,451.9c109.7,78.2,233.4,32.7,323.4-45.3c6-11,16-39.2,16-39.2
				s122-186.8,151.8-244.7c29.8-57.8,80.2-214.1,30.2-302.1s-258-146-258-146L692.3,147.7z"/>
			<path class="st15" d="M629.7,1483.6c0,0-9.1,187.5,20.9,195s231,22.5,243.2,0c12.1-22.5-54.2-48-68.1-63.7
				c-13.9-15.7-35-114.8-35-114.8L629.7,1483.6z"/>
			<path class="st15" d="M375.6,1482.3c0,0,114.7,43.3,138.7-34s71.3-83.3,82-53.3s-42.7,274-64,277.3S389,1661,389,1661
				L375.6,1482.3z"/>
		</g>
		<g id="skin1" class="st0">
			<path class="st8" d="M739.9,1476.1c0,0,44.2,162,66.7,172.5s151.5,4.5,168,0s-3-25.5-28.5-33.7s-31.5-105.8-31.5-105.8
				L739.9,1476.1z"/>
			<path class="st16" d="M692.3,147.7L540.3,415c0,0,28.4,373.6,138,451.9c109.7,78.2,233.4,32.7,323.4-45.3c6-11,16-39.2,16-39.2
				s122-186.8,151.8-244.7c29.8-57.8,80.2-214.1,30.2-302.1s-258-146-258-146L692.3,147.7z"/>
			<path class="st16" d="M629.7,1483.6c0,0-9.1,187.5,20.9,195s231,22.5,243.2,0c12.1-22.5-54.2-48-68.1-63.7
				c-13.9-15.7-35-114.8-35-114.8L629.7,1483.6z"/>
			<path class="st16" d="M375.6,1482.3c0,0,114.7,43.3,138.7-34s71.3-83.3,82-53.3s-42.7,274-64,277.3S389,1661,389,1661
				L375.6,1482.3z"/>
		</g>
		<g id="skin2" class="st0">
			<path class="st9" d="M739.9,1476.1c0,0,44.2,162,66.7,172.5s151.5,4.5,168,0s-3-25.5-28.5-33.7s-31.5-105.8-31.5-105.8
				L739.9,1476.1z"/>
			<path class="st17" d="M692.3,147.7L540.3,415c0,0,28.4,373.6,138,451.9c109.7,78.2,233.4,32.7,323.4-45.3c6-11,16-39.2,16-39.2
				s122-186.8,151.8-244.7c29.8-57.8,80.2-214.1,30.2-302.1s-258-146-258-146L692.3,147.7z"/>
			<path class="st17" d="M629.7,1483.6c0,0-9.1,187.5,20.9,195s231,22.5,243.2,0c12.1-22.5-54.2-48-68.1-63.7
				c-13.9-15.7-35-114.8-35-114.8L629.7,1483.6z"/>
			<path class="st17" d="M375.6,1482.3c0,0,114.7,43.3,138.7-34s71.3-83.3,82-53.3s-42.7,274-64,277.3S389,1661,389,1661
				L375.6,1482.3z"/>
		</g>
		<g id="skin3" class="st0">
			<path class="st10" d="M739.9,1476.1c0,0,44.2,162,66.7,172.5s151.5,4.5,168,0s-3-25.5-28.5-33.7s-31.5-105.8-31.5-105.8
				L739.9,1476.1z"/>
			<path class="st18" d="M692.3,147.7L540.3,415c0,0,28.4,373.6,138,451.9c109.7,78.2,233.4,32.7,323.4-45.3c6-11,16-39.2,16-39.2
				s122-186.8,151.8-244.7c29.8-57.8,80.2-214.1,30.2-302.1s-258-146-258-146L692.3,147.7z"/>
			<path class="st18" d="M629.7,1483.6c0,0-9.1,187.5,20.9,195s231,22.5,243.2,0c12.1-22.5-54.2-48-68.1-63.7
				c-13.9-15.7-35-114.8-35-114.8L629.7,1483.6z"/>
			<path class="st18" d="M375.6,1482.3c0,0,114.7,43.3,138.7-34s71.3-83.3,82-53.3s-42.7,274-64,277.3S389,1661,389,1661
				L375.6,1482.3z"/>
		</g>
	</g>
	<g id="nose">
		<path class="st19" d="M1131.6,428.4c0.5,3,0,18,0,24.3s-13.5,9.6-24,8.8s-12.6-16.8-14.3-26.3c-1.7-9.5,11-13.3,14.8-17.3
			c3.8-4,18.3,1.5,18.3,1.5S1131.1,425.4,1131.6,428.4z"/>
		<path class="st19" d="M760.5,431.9c-4.3,4-2,9.3-2.3,14.3c-0.3,5.1,5.3,13.9,10.5,20.1s23.2,1.9,32.5,0s8.7-11.5,8-28.6
			s-14-14.6-14-14.6C784.7,421.7,764.7,428,760.5,431.9z"/>
		<path class="st19" d="M938.5,508.1c0,0,0.2,3.2,0.2,6.5s-1.3,6-4.8,7s-5.2-4.8-5.5-6.2c-0.4-1.4,3.8-7.2,11.8-12.4
			s18.3,10.3,18.3,10.3C946.9,501.6,938.5,508.1,938.5,508.1z"/>
		<path class="st19" d="M1042.4,504.6c0,0-8-1.2-9.7-3.7s1.3-2.7,1.3-2.7s-5.4-1.3-8.2-1.5c-2.8-0.1-15.3,10.7-15.3,10.7
			s10.5-12.8,15.5-17.3c5-4.5,19,6.5,19,6.5L1042.4,504.6z"/>
	</g>
	<g id="rufflesB">
		<path class="st20" d="M1001.6,1517c-3.9,11.3-63.3-12-63.3-12s81.9,49.3,57.3,75.3c-24.6,26-111.3-60-111.3-60s8.7,10,18.7,29.1
			s-2,56.2-30.7,49.5c-28.7-6.6-32-65.3-32-65.3s-34.6,77.3-61.6,81.2s4.3-91.9,4.3-91.9s-49.3,18.6-51.3,3.3s78.7-57.5,78.7-57.5
			H931C931,1468.7,1005.7,1505.6,1001.6,1517z"/>
		<path class="st21" d="M359.2,1657.2c0,0,91.5,52.4,96.5,34.4s-63-48-63-48s83,23,86,0s-77-45-77-45s100,10,86-17s-85-28-65.5-28.6
			s68.5-64.4,54.5-66.4s-73,24-73,24c26-4,64-73,53-83s-89,55-89,55L359.2,1657.2z"/>
		<path class="st21" d="M889.2,1574.9c-26,20-81.3-45.3-81.3-45.3s21.4,108-7.3,105.3s-56.7-112-54.7-98s-56,108-80,102
			s-0.7-117.3-1.3-109.3s-52,74-75.3,65.3s20.7-92.7,14.7-82.7s-64.7,19.4-64-5.3c0.7-24.6,58.7-47.3,58.7-47.3h218.7
			C817.4,1459.6,915.2,1554.9,889.2,1574.9z"/>
		<path class="st21" d="M624.4,469.5c18.3-43.6-73-80.3-73-80.3l26,5.7c33,5.4,80.4,0.4,88.7-41.3s-68.7-85-68.7-85
			s88,28.4,127.3-8.3c39.4-36.7-55.3-82.7-55.3-82.7c85,30.7,170.3,6.5,176.3-6.5s-26-39-26-39s110.5,26,149,17s-9.5-55.5-5.5-49
			s150,38,164.5,15.5s-132-65-132-65c-251,39-370.6,108.6-433.3,210.4c-62.7,101.9-8.4,254.4-8.4,254.4S606,513.3,624.4,469.5z"/>
	</g>
	<g id="TieB">
		<path class="st22" d="M988.7,1010.6c39,62,178,141,165,45s-246-202-246-202S949.7,948.6,988.7,1010.6z"/>
		<path class="st22" d="M898.9,899.6c0.1,36,64.8,247,64.8,247c-85-114-62-217-62-217"/>
		<path class="st22" d="M875.7,916.6c-23,51-243,208-247,115s216-194,216-194"/>
		<path class="st22" d="M860.7,955.6c-69.6,91.1-70,207-70,207"/>
	</g>
	<g id="Baby_SuckerG">
		<path class="st11" d="M1167.4,755.9c31-16.3,83.7-136.4,4.6-195c-79.1-58.6-209-35.4-251.7,17.3c-42.6,52.7-24,114.7-13.3,150.7
			c10.7,36,64.7,46.7,64.7,46.7C1013.8,793.4,1136.4,772.3,1167.4,755.9z"/>
		<path class="st21" d="M971.3,585.5c-19,26-21.6,79.3-10.3,116c11.4,36.7,99.3,52.7,184.7,44.7s81.4-106,66.7-148
			c-14.7-42-106.7-59.3-106.7-59.3C1035.7,531.6,990.3,559.5,971.3,585.5z"/>
		<path class="st12" d="M1102.4,632.9c11.6,29.4,36,97.4,16.7,111.1c-19.3,13.8-39.1-116.7-39.1-116.7s-48.2-20.3-21.3,92.9
			s77.3,77,102.8,47c25.6-30-18.2-123-18.2-123C1109.2,602.6,1102.5,632.9,1102.4,632.9z"/>
	</g>
</g>
<g id="Baby_SuckerB" class="st0">
	<path class="st23" d="M249.2,775.6c0,0,54-10.7,64.7-46.7s29.3-98-13.3-150.7c-42.7-52.7-172.6-75.9-251.7-17.3
		s-26.4,178.7,4.6,195C84.5,772.3,207.1,793.4,249.2,775.6z"/>
	<path class="st24" d="M115.2,538.9c0,0-92,17.3-106.7,59.3s-18.7,140,66.7,148s173.3-8,184.7-44.7c11.3-36.7,8.7-90-10.3-116
		S185.2,531.6,115.2,538.9z"/>
	<path class="st25" d="M77.6,644.2c0,0-43.8,93-18.2,123c25.5,30,75.9,66.2,102.8-47s-21.3-92.9-21.3-92.9S121.1,757.8,101.8,744
		c-19.3-13.7,5.1-81.7,16.7-111.1C118.4,632.9,111.7,602.6,77.6,644.2z"/>
</g>
</svg>
