<?xml version="1.0" encoding="utf-8"?>
<!-- Generator: Adobe Illustrator 22.1.0, SVG Export Plug-In . SVG Version: 6.00 Build 0)  -->
<svg version="1.1" id="Layer_1" xmlns="http://www.w3.org/2000/svg" xmlns:xlink="http://www.w3.org/1999/xlink" x="0px" y="0px"
	 viewBox="0 0 1220.8 1695.4" style="enable-background:new 0 0 1220.8 1695.4;" xml:space="preserve">
<style type="text/css">
	.st0{fill:#663510;}
	.st1{fill:#A57A46;}
	.st2{fill:#B58D61;}
	.st3{fill:#CCA47D;}
	.st4{fill:#AAC4FF;}
	.st5{fill:#BFE1FF;}
	.st6{fill:none;stroke:#AAC4FF;stroke-width:8;stroke-miterlimit:10;}
	.st7{fill:#FEE9FF;}
	.st8{fill:#FF7FF8;}
	.st9{fill:#FFBFF6;}
	.st10{fill:none;stroke:#FF7FF8;stroke-width:8;stroke-miterlimit:10;}
	.st11{fill:#7C4D23;}
	.st12{fill:#B5874B;}
	.st13{fill:#C9A06F;}
	.st14{fill:#DDBB97;}
	.st15{fill:#4C2E0C;}
	.st16{fill:#D4FFEA;}
	.st17{fill:#E9FFF5;}
	.st18{fill:#FFE1FB;}
	.st19{fill:#FFF3FD;}
	.st20{fill:none;stroke:#7BE0FF;stroke-width:8;stroke-miterlimit:10;}
	.st21{fill:none;stroke:#FFAAFD;stroke-width:8;stroke-miterlimit:10;}
	.st22{fill:#FF94F3;}
	.st23{fill:#FFE9FA;}
	.st24{fill:#FFAAFD;}
</style>
<g>
	<g id="back_foot">
		<g id="skin0_1_">
			<path class="st0" d="M679.2,1625c0,0-64,29.8-75.9,0s-25.5-196.6-25.5-196.6l94.5,82.6L679.2,1625z"/>
		</g>
		<g id="skin1_1_">
			<path class="st1" d="M679.2,1623.1c0,0-64,29.8-75.9,0s-25.5-196.6-25.5-196.6l94.5,82.6L679.2,1623.1z"/>
		</g>
		<g id="skin2_1_">
			<path class="st2" d="M679.2,1625c0,0-64,29.8-75.9,0s-25.5-196.6-25.5-196.6l94.5,82.6L679.2,1625z"/>
		</g>
		<g id="skin3_1_">
			<path class="st3" d="M679.2,1625c0,0-64,29.8-75.9,0s-25.5-196.6-25.5-196.6l94.5,82.6L679.2,1625z"/>
		</g>
	</g>
	<g id="baby_clothesB">
		<path class="st4" d="M365.5,899.6c0,0-149.4-38-147.9-78s73.9,670,73.9,670l-11.1,38l128.7-4l114.3-316L365.5,899.6z"/>
		<path class="st5" d="M239,64.7c0,0,196-100.5,357-51s270.4,145.5,278,175.5c7.6,30,80.5,195,47.1,292.5
			c-33.4,97.5-162.5,328.5-162.5,328.5s202,117,320.5,303s191.8,346.5,101.3,513.5c-52.2,52-314.9,29.5-314.9,29.5l-67.3-78
			l18.2-70.5l-407.1,18l-43.7-626c0,0,161,19.9,211.7-67c50.6-87,104.2-338.9,106.3-410.9S699.8,279.7,556,161.7
			C555.8,161.6,402.1,75.8,239,64.7z"/>
		<path class="st5" d="M431.3,917.6c0,0-124.6-24-213.7-96l42.8,370.2c0,0,12.9,95.8,209.9,135.8s314.4-280,314.4-280L431.3,917.6z"
			/>
		<line class="st6" x1="683.5" y1="1153.6" x2="637.4" y2="1382.3"/>
		<line class="st6" x1="859.7" y1="1482.6" x2="1039.9" y2="1402.9"/>
		<path class="st7" d="M671,515.4c0,0,55-152.5-8.5-254.4C599,159.2,477.8,89.6,223.7,50.6c0,0-148.4,42.5-133.7,65
			s162.5-9,166.6-15.5c4.1-6.5-44.6,40-5.6,49s150.9-17,150.9-17s-32.4,26-26.3,39s92.5,37.2,178.6,6.5c0,0-95.9,46-56,82.7
			c39.8,36.7,129,8.3,129,8.3s-78,43.3-69.5,85c8.4,41.7,56.4,46.7,89.8,41.3l26.3-5.7c0,0-92.5,36.7-73.9,80.3S671,515.4,671,515.4
			z"/>
	</g>
	<g id="baby_clothesG">
		<path class="st8" d="M365.2,899.6c0,0-147.5-38-146-78s73,670,73,670l-11,38l127.1-4l112.9-316L365.2,899.6z"/>
		<path class="st9" d="M245.8,64.7c0,0,193.5-100.5,352.5-51s267,145.5,274.5,175.5s79.5,195,46.5,292.5S758.8,810.2,758.8,810.2
			s199.5,117,316.5,303s189.4,346.5,100,513.5c-51.6,52-311,29.5-311,29.5l-66.5-78l18-70.5l-402,18l-43.1-626c0,0,159,19.9,209-67
			s102.9-338.9,105-410.9s16-142.1-126-260.1C558.7,161.6,406.9,75.8,245.8,64.7z"/>
		<path class="st9" d="M430.2,917.6c0,0-123-24-211-96l42.3,370.2c0,0,12.8,95.8,207.2,135.8s310.5-280,310.5-280L430.2,917.6z"/>
		<line class="st10" x1="679.2" y1="1153.6" x2="633.8" y2="1382.3"/>
		<line class="st10" x1="853.2" y1="1482.6" x2="1031.2" y2="1402.9"/>
	</g>
	<g id="skin_colors">
		<g id="skin0">
			<path class="st0" d="M306.3,1509.1c0,0-6,97.6-31.5,105.8s-45,29.2-28.5,33.7s145.5,10.5,168,0s66.7-172.5,66.7-172.5
				L306.3,1509.1z"/>
			<path class="st11" d="M279.2,89.6c0,0-208,58-258,146s0.4,244.3,30.2,302.1c29.8,57.9,151.8,244.7,151.8,244.7s10,28.2,16,39.2
				c90,78,213.7,123.5,323.4,45.3c109.6-78.3,138-451.9,138-451.9l-152-267.3L279.2,89.6z"/>
			<path class="st11" d="M430.2,1500.1c0,0-21.1,99.1-35,114.8c-13.9,15.7-80.2,41.2-68.1,63.7c12.2,22.5,213.2,7.5,243.2,0
				s20.9-195,20.9-195L430.2,1500.1z"/>
			<path class="st11" d="M831.9,1661c0,0-122,14.6-143.3,11.3s-74.7-247.3-64-277.3s58-24,82,53.3s138.7,34,138.7,34L831.9,1661z"/>
		</g>
		<g id="skin1">
			<path class="st1" d="M306.3,1509.1c0,0-6,97.6-31.5,105.8s-45,29.2-28.5,33.7s145.5,10.5,168,0s66.7-172.5,66.7-172.5
				L306.3,1509.1z"/>
			<path class="st12" d="M279.2,89.6c0,0-208,58-258,146s0.4,244.3,30.2,302.1c29.8,57.9,151.8,244.7,151.8,244.7s10,28.2,16,39.2
				c90,78,213.7,123.5,323.4,45.3c109.6-78.3,138-451.9,138-451.9l-152-267.3L279.2,89.6z"/>
			<path class="st12" d="M430.2,1500.1c0,0-21.1,99.1-35,114.8c-13.9,15.7-80.2,41.2-68.1,63.7c12.2,22.5,213.2,7.5,243.2,0
				s20.9-195,20.9-195L430.2,1500.1z"/>
			<path class="st12" d="M831.9,1661c0,0-122,14.6-143.3,11.3s-74.7-247.3-64-277.3s58-24,82,53.3s138.7,34,138.7,34L831.9,1661z"/>
		</g>
		<g id="skin2">
			<path class="st2" d="M306.3,1509.1c0,0-6,97.6-31.5,105.8s-45,29.2-28.5,33.7s145.5,10.5,168,0s66.7-172.5,66.7-172.5
				L306.3,1509.1z"/>
			<path class="st13" d="M279.2,89.6c0,0-208,58-258,146s0.4,244.3,30.2,302.1c29.8,57.9,151.8,244.7,151.8,244.7s10,28.2,16,39.2
				c90,78,213.7,123.5,323.4,45.3c109.6-78.3,138-451.9,138-451.9l-152-267.3L279.2,89.6z"/>
			<path class="st13" d="M430.2,1500.1c0,0-21.1,99.1-35,114.8c-13.9,15.7-80.2,41.2-68.1,63.7c12.2,22.5,213.2,7.5,243.2,0
				s20.9-195,20.9-195L430.2,1500.1z"/>
			<path class="st13" d="M831.9,1661c0,0-122,14.6-143.3,11.3s-74.7-247.3-64-277.3s58-24,82,53.3s138.7,34,138.7,34L831.9,1661z"/>
		</g>
		<g id="skin3">
			<path class="st3" d="M306.3,1509.1c0,0-6,97.6-31.5,105.8s-45,29.2-28.5,33.7s145.5,10.5,168,0s66.7-172.5,66.7-172.5
				L306.3,1509.1z"/>
			<path class="st14" d="M279.2,89.6c0,0-208,58-258,146s0.4,244.3,30.2,302.1c29.8,57.9,151.8,244.7,151.8,244.7s10,28.2,16,39.2
				c90,78,213.7,123.5,323.4,45.3c109.6-78.3,138-451.9,138-451.9l-152-267.3L279.2,89.6z"/>
			<path class="st14" d="M430.2,1500.1c0,0-21.1,99.1-35,114.8c-13.9,15.7-80.2,41.2-68.1,63.7c12.2,22.5,213.2,7.5,243.2,0
				s20.9-195,20.9-195L430.2,1500.1z"/>
			<path class="st14" d="M831.9,1661c0,0-122,14.6-143.3,11.3s-74.7-247.3-64-277.3s58-24,82,53.3s138.7,34,138.7,34L831.9,1661z"/>
		</g>
	</g>
	<g id="nose">
		<path class="st15" d="M94.5,419.4c0,0,14.5-5.5,18.3-1.5s16.5,7.8,14.8,17.3c-1.7,9.5-3.8,25.5-14.3,26.3s-24-2.5-24-8.8
			s-0.5-21.3,0-24.3S94.5,419.4,94.5,419.4z"/>
		<path class="st15" d="M425.7,423.1c0,0-13.3-2.5-14,14.6s-1.3,26.7,8,28.6s27.3,6.2,32.5,0s10.8-15,10.5-20.1
			c-0.3-5,2-10.3-2.3-14.3C456.2,428,436.2,421.7,425.7,423.1z"/>
		<path class="st15" d="M262.4,513.3c0,0,10.3-15.5,18.3-10.3s12.2,11,11.8,12.4c-0.3,1.4-2,7.2-5.5,6.2s-4.8-3.7-4.8-7
			c0-3.3,0.2-6.5,0.2-6.5S274,501.6,262.4,513.3z"/>
		<path class="st15" d="M175.9,496.6c0,0,14-11,19-6.5c5,4.5,15.5,17.3,15.5,17.3s-12.5-10.8-15.3-10.7c-2.8,0.2-8.2,1.5-8.2,1.5
			s3,0.2,1.3,2.7s-9.7,3.7-9.7,3.7L175.9,496.6z"/>
	</g>
	<g id="rufflesB">
		<path class="st16" d="M289.9,1468.7h120.6c0,0,80.7,42.2,78.7,57.5s-51.3-3.3-51.3-3.3s31.3,95.8,4.3,91.9s-61.6-81.2-61.6-81.2
			s-3.3,58.7-32,65.3c-28.7,6.7-40.7-30.4-30.7-49.5s18.7-29.1,18.7-29.1s-86.7,86-111.3,60c-24.6-26,57.3-75.3,57.3-75.3
			s-59.4,23.3-63.3,12C215.2,1505.6,289.9,1468.7,289.9,1468.7z"/>
		<path class="st17" d="M853.2,1482.6c0,0-78-65-89-55s27,79,53,83c0,0-59-26-73-24s35,65.8,54.5,66.4s-51.5,1.6-65.5,28.6
			s86,17,86,17s-80,22-77,45s86,0,86,0s-68,30-63,48s96.5-34.4,96.5-34.4L853.2,1482.6z"/>
		<path class="st17" d="M403.5,1459.6h218.7c0,0,58,22.7,58.7,47.3c0.7,24.7-58,15.3-64,5.3s38,74,14.7,82.7s-74.7-57.3-75.3-65.3
			s22.7,103.3-1.3,109.3s-82-88-80-102s-26,95.3-54.7,98s-7.3-105.3-7.3-105.3s-55.3,65.3-81.3,45.3S403.5,1459.6,403.5,1459.6z"/>
		<path class="st17" d="M666.9,515.4c0,0,54.3-152.5-8.4-254.4C595.8,159.2,476.2,89.6,225.2,50.6c0,0-146.5,42.5-132,65
			s160.5-9,164.5-15.5c4-6.5-44,40-5.5,49s149-17,149-17s-32,26-26,39s91.3,37.2,176.3,6.5c0,0-94.7,46-55.3,82.7
			c39.3,36.7,127.3,8.3,127.3,8.3s-77,43.3-68.7,85s55.7,46.7,88.7,41.3l26-5.7c0,0-91.3,36.7-73,80.3
			C614.9,513.3,666.9,515.4,666.9,515.4z"/>
	</g>
	<g id="rufflesG">
		<path class="st18" d="M289.9,1468.7h120.6c0,0,80.7,42.2,78.7,57.5s-51.3-3.3-51.3-3.3s31.3,95.8,4.3,91.9s-61.6-81.2-61.6-81.2
			s-3.3,58.7-32,65.3c-28.7,6.7-40.7-30.4-30.7-49.5s18.7-29.1,18.7-29.1s-86.7,86-111.3,60c-24.6-26,57.3-75.3,57.3-75.3
			s-59.4,23.3-63.3,12C215.2,1505.6,289.9,1468.7,289.9,1468.7z"/>
		<path class="st19" d="M853.2,1482.6c0,0-78-65-89-55s27,79,53,83c0,0-59-26-73-24s35,65.8,54.5,66.4s-51.5,1.6-65.5,28.6
			s86,17,86,17s-80,22-77,45s86,0,86,0s-68,30-63,48s96.5-34.4,96.5-34.4L853.2,1482.6z"/>
		<path class="st19" d="M403.5,1459.6h218.7c0,0,58,22.7,58.7,47.3c0.7,24.7-58,15.3-64,5.3s38,74,14.7,82.7s-74.7-57.3-75.3-65.3
			s22.7,103.3-1.3,109.3s-82-88-80-102s-26,95.3-54.7,98s-7.3-105.3-7.3-105.3s-55.3,65.3-81.3,45.3S403.5,1459.6,403.5,1459.6z"/>
		<path class="st19" d="M666.9,515.4c0,0,54.3-152.5-8.4-254.4C595.8,159.2,476.2,89.6,225.2,50.6c0,0-146.5,42.5-132,65
			s160.5-9,164.5-15.5c4-6.5-44,40-5.5,49s149-17,149-17s-32,26-26,39s91.3,37.2,176.3,6.5c0,0-94.7,46-55.3,82.7
			c39.3,36.7,127.3,8.3,127.3,8.3s-77,43.3-68.7,85s55.7,46.7,88.7,41.3l26-5.7c0,0-91.3,36.7-73,80.3
			C614.9,513.3,666.9,515.4,666.9,515.4z"/>
	</g>
	<g id="TieB">
		<path class="st20" d="M313.2,853.6c0,0-233,106-246,202s126,17,165-45C271.2,948.6,313.2,853.6,313.2,853.6z"/>
		<path class="st20" d="M319.2,929.6c0,0,23,103-62,217c0,0,64.7-211,64.8-247"/>
		<path class="st20" d="M376.2,837.6c0,0,220,101,216,194s-224-64-247-115"/>
		<path class="st20" d="M430.2,1162.6c0,0-0.4-115.9-70-207"/>
	</g>
	<g id="TieG">
		<path class="st21" d="M313.2,853.6c0,0-233,106-246,202s126,17,165-45C271.2,948.6,313.2,853.6,313.2,853.6z"/>
		<path class="st21" d="M319.2,929.6c0,0,23,103-62,217c0,0,64.7-211,64.8-247"/>
		<path class="st21" d="M376.2,837.6c0,0,220,101,216,194s-224-64-247-115"/>
		<path class="st21" d="M430.2,1162.6c0,0-0.4-115.9-70-207"/>
	</g>
	<g id="Baby_SuckerG">
		<path class="st4" d="M249.2,775.6c0,0,54-10.7,64.7-46.7s29.3-98-13.3-150.7c-42.7-52.7-172.6-75.9-251.7-17.3
			s-26.4,178.7,4.6,195C84.5,772.3,207.1,793.4,249.2,775.6z"/>
		<path class="st17" d="M115.2,538.9c0,0-92,17.3-106.7,59.3c-14.7,42-18.7,140,66.7,148s173.3-8,184.7-44.7
			c11.3-36.7,8.7-90-10.3-116S185.2,531.6,115.2,538.9z"/>
		<path class="st5" d="M77.6,644.2c0,0-43.8,93-18.2,123c25.5,30,75.9,66.2,102.8-47s-21.3-92.9-21.3-92.9S121.1,757.8,101.8,744
			c-19.3-13.7,5.1-81.7,16.7-111.1C118.4,632.9,111.7,602.6,77.6,644.2z"/>
	</g>
	<g id="Baby_SuckerB">
		<path class="st22" d="M249.2,775.6c0,0,54-10.7,64.7-46.7s29.3-98-13.3-150.7c-42.7-52.7-172.6-75.9-251.7-17.3
			s-26.4,178.7,4.6,195C84.5,772.3,207.1,793.4,249.2,775.6z"/>
		<path class="st23" d="M115.2,538.9c0,0-92,17.3-106.7,59.3c-14.7,42-18.7,140,66.7,148s173.3-8,184.7-44.7
			c11.3-36.7,8.7-90-10.3-116S185.2,531.6,115.2,538.9z"/>
		<path class="st24" d="M77.6,644.2c0,0-43.8,93-18.2,123c25.5,30,75.9,66.2,102.8-47s-21.3-92.9-21.3-92.9S121.1,757.8,101.8,744
			c-19.3-13.7,5.1-81.7,16.7-111.1C118.4,632.9,111.7,602.6,77.6,644.2z"/>
	</g>
</g>
</svg>
