<?xml version="1.0" encoding="utf-8"?>
<!-- Generator: Adobe Illustrator 22.1.0, SVG Export Plug-In . SVG Version: 6.00 Build 0)  -->
<svg version="1.1" xmlns="http://www.w3.org/2000/svg" xmlns:xlink="http://www.w3.org/1999/xlink" x="0px" y="0px"
	 viewBox="0 0 1099.9 4430.2" style="enable-background:new 0 0 1099.9 4430.2;" xml:space="preserve">
<style type="text/css">
	.st0{display:none;fill:#DDBB97;}
	.st1{display:none;fill:#C9A06F;}
	.st2{display:none;fill:#B5874B;}
	.st3{fill:#7C4D23;}
	.st4{fill:none;stroke:#000000;stroke-width:5;stroke-miterlimit:10;}
	.st5{fill:none;stroke:#000000;stroke-width:9;stroke-miterlimit:10;}
	.st6{fill:#7F7F7F;}
	.st7{fill:#56656D;}
	.st8{fill:#BFBFBF;}
	.st9{fill:#C1C1C1;}
	.st10{fill:#62849B;}
	.st11{fill:#85AAC9;}
	.st12{fill:#A0A0A0;}
	.st13{fill:#434F54;}
	.st14{fill:#4C585E;}
	.st15{fill:#364144;}
	.st16{fill:#1E1E1E;}
	.st17{fill:#424C51;}
</style>
<g id="face_1_">
	<path class="st0" d="M856.2,378.2l-8,206.7l50.7,41.3l-50.7,49l-43.3,211l-184,26l-54.7,174l-112.7-58l51.3-145.3l-51.3-121.7
		c0,0-88.7-23-92.7-95c-1.3-23.2,2.5-41.1,8.6-54.6c12.8-28.5,35.6-37.7,42.4-36.4c10,2-37,46-37,46l-56-148L856.2,378.2z"/>
	<path class="st1" d="M856.2,378.2l-8,206.7l50.7,41.3l-50.7,49l-43.3,211l-184,26l-54.7,174l-112.7-58l51.3-145.3l-51.3-121.7
		c0,0-88.7-23-92.7-95c-1.3-23.2,2.5-41.1,8.6-54.6c12.8-28.5,35.6-37.7,42.4-36.4c10,2-37,46-37,46l-56-148L856.2,378.2z"/>
	<path class="st2" d="M856.2,378.2l-8,206.7l50.7,41.3l-50.7,49l-43.3,211l-184,26l-54.7,174l-112.7-58l51.3-145.3l-51.3-121.7
		c0,0-88.7-23-92.7-95c-1.3-23.2,2.5-41.1,8.6-54.6c12.8-28.5,35.6-37.7,42.4-36.4c10,2-37,46-37,46l-56-148L856.2,378.2z"/>
	<path class="st3" d="M856.2,378.2l-8,206.7l50.7,41.3l-50.7,49l-43.3,211l-184,26l-54.7,174l-112.7-58l51.3-145.3l-51.3-121.7
		c0,0-88.7-23-92.7-95c-1.3-23.2,2.5-41.1,8.6-54.6c12.8-28.5,35.6-37.7,42.4-36.4c10,2-37,46-37,46l-56-148L856.2,378.2z"/>
</g>
<g id="face">
	<path d="M844.9,660.5c0,0-26.7,6-24,12C823.6,678.5,824.9,670.2,844.9,660.5z"/>
	<path class="st4" d="M370.4,609.4c0,0,61.8-90.3,134.1-8.6"/>
	<path d="M349.2,493.5c-2.6,3.5,1.3,7,3.7,5c2.3-2,3-3,1.7-5S351.2,490.8,349.2,493.5z"/>
	<path class="st4" d="M832.6,752.2c0,0-27.7-15-97.3,21.7"/>
	<polyline class="st5" points="720.4,611.3 722.3,555.3 727.4,614.8 732.9,554.2 735.4,617.3 742.1,550.2 744.9,621.8 751.6,547.8 	
		"/>
	<polyline class="st5" points="644.6,558.4 756.6,532.4 646.9,564.2 786.1,538.2 655.9,571.7 777.6,553.4 	"/>
	<path d="M436.2,537.5c-1.7,4-1,6.7,2,6.3c3-0.3,3.7-1,3.3-3.2C441.2,538.5,436.2,537.5,436.2,537.5z"/>
	<path d="M443.2,484.8c-3.4,3-0.7,7.8,2.7,6.9c3.3-0.9,7-4.6,5.7-5.6S445.6,482.8,443.2,484.8z"/>
</g>
<g id="hat">
	<path class="st6" d="M321.5,385.9c0,0-211.2,92-203.4,103.3c21.2,30.7,535.6,46.5,962.5-70.7c0,0,113.9-22.9-211.8-97.4
		c0,0-212.1-328.4-219.8-321s-79.2,157.5-91.8,158.5S443.5,12.6,425.6,31.1S321.5,385.9,321.5,385.9z"/>
	<path d="M321.5,385.9c0,0,221.6,38.5,547.3-64.7s0,0,0,0l-43.8-67.4l-483.2,54.9L321.5,385.9"/>
</g>
<g id="clothes">
	<polygon class="st7" points="666.9,2244.1 451.3,3984.2 230.9,3984.2 247.5,2216.6 	"/>
	<path d="M683.3,2161.7c0,0-115.5-30.2-491.6,13.4l-7.2,106.6c0,0,433.5-28.5,487.5-15L683.3,2161.7z"/>
	<path class="st8" d="M397.4,1080.2c0,0-136.7,128.8-163.7,284.8s-114,687.1-84,777.1l42,33c0,0,438-24,483-15c0,0,37.6,24,36.8-105
		S650.2,1188,650.2,1188L397.4,1080.2z"/>
	<polygon class="st9" points="552.9,1347.5 626.9,1365.5 620.2,1493.5 583.6,1526.8 544.9,1473.5 	"/>
	<polyline class="st10" points="685.8,1273.9 772.9,1954.2 712.9,2092.2 658.9,1950.2 650.2,1273.9 685.8,1273.9 	"/>
	<path class="st11" d="M615.7,1132.2c0,0,107.2,42,86.2,104s-53,87-53,87s-56-59-53-102s12.6-80.6,20.4-82.9
		C624.2,1135.9,615.7,1132.2,615.7,1132.2"/>
	<polygon class="st12" points="397.4,958.2 611.4,1090.2 622.9,1202.2 321.5,1060.2 	"/>
	<path class="st6" d="M586.2,1022.5l44,57.7v58.6c0,0-6.8-7.5-13.9-0.5l-4.9-48.1l-38.9-24L586.2,1022.5z"/>
	<polygon class="st6" points="397.4,958.2 474.4,969.1 463.8,999.1 	"/>
	<path class="st12" d="M296.9,1257.2c0,0,30-98,79-92s92.6,10,96.3,96c3.7,86-74.8,925.9-74.8,925.9l-220.7,15L296.9,1257.2z"/>
	<polygon class="st6" points="136.5,2139.2 460.5,2052.2 418.5,2277.2 129,2313.2 	"/>
	<polygon class="st13" points="656,2332.3 510.9,3856.2 467.2,3856.2 	"/>
	<polygon class="st14" points="194.9,3822.2 522.9,3822.2 486.9,4064.2 178.9,4064.2 	"/>
	<polygon class="st15" points="485.3,3709.7 561.6,3709.7 523.4,3928.2 507.1,3928.2 522.9,3822.2 467.2,3818.9 	"/>
	<polygon class="st16" points="240.9,4064.2 218.9,4430.2 766.9,4430.2 390.9,4316.2 422.9,4064.2 	"/>
	<polyline points="484.2,4063.7 456,4230.1 753,4326.1 390.9,4316.2 422.9,4064.2 	"/>
	<path class="st17" d="M625.9,2263.2v182.9h15.9l22.4-180.8C664.3,2265.3,649.5,2263.4,625.9,2263.2z"/>
</g>
<g id="hand">
	<polygon class="st0" points="346.1,2286.2 354,2388.2 324.5,2659.7 143.5,2782.7 37.5,2748.2 211.5,2659.7 48,2670.2 0,2614.7 
		211.5,2593.7 87,2553.2 129,2398.7 216,2386.7 236.8,2299.8 	"/>
	<polygon class="st1" points="346.1,2286.2 354,2388.2 324.5,2659.7 143.5,2782.7 37.5,2748.2 211.5,2659.7 48,2670.2 0,2614.7 
		211.5,2593.7 87,2553.2 129,2398.7 216,2386.7 236.8,2299.8 	"/>
	<polygon class="st2" points="346.1,2286.2 354,2388.2 324.5,2659.7 143.5,2782.7 37.5,2748.2 211.5,2659.7 48,2670.2 0,2614.7 
		211.5,2593.7 87,2553.2 129,2398.7 216,2386.7 236.8,2299.8 	"/>
	<polygon class="st3" points="346.1,2286.2 354,2388.2 324.5,2659.7 143.5,2782.7 37.5,2748.2 211.5,2659.7 48,2670.2 0,2614.7 
		211.5,2593.7 87,2553.2 129,2398.7 216,2386.7 236.8,2299.8 	"/>
</g>
</svg>
