<?xml version="1.0" encoding="utf-8"?>
<!-- Generator: Adobe Illustrator 22.1.0, SVG Export Plug-In . SVG Version: 6.00 Build 0)  -->
<svg version="1.1" id="Layer_1" xmlns="http://www.w3.org/2000/svg" xmlns:xlink="http://www.w3.org/1999/xlink" x="0px" y="0px"
	 viewBox="0 0 291.4 282.5" style="enable-background:new 0 0 291.4 282.5;" xml:space="preserve">
<g>
	<circle cx="58.1" cy="32.5" r="32.5"/>
	<rect x="49.1" y="58.5" width="19" height="28"/>
	<path d="M74.1,181.5h-33c-6.6,0-12-5.4-12-12v-80c0-6.6,5.4-12,12-12h33c6.6,0,12,5.4,12,12v80C86.1,176.1,80.7,181.5,74.1,181.5z"
		/>
	<rect x="14.7" y="84.9" transform="matrix(0.9378 0.347 -0.347 0.9378 46.3923 -0.7201)" width="21" height="88.5"/>
	<rect x="79.7" y="84.9" transform="matrix(-0.9378 0.347 -0.347 -0.9378 219.6325 218.9975)" width="21" height="88.5"/>
	<rect x="29.1" y="169.5" width="24" height="113"/>
	<rect x="62.1" y="169.5" width="24" height="113"/>
</g>
<g>
	<circle cx="151.1" cy="32.5" r="32.5"/>
	<rect x="142.1" y="58.5" width="19" height="28"/>
	<path d="M167.1,181.5h-33c-6.6,0-12-5.4-12-12v-80c0-6.6,5.4-12,12-12h33c6.6,0,12,5.4,12,12v80
		C179.1,176.1,173.7,181.5,167.1,181.5z"/>
	<rect x="107.7" y="84.9" transform="matrix(0.9378 0.347 -0.347 0.9378 52.1722 -32.9949)" width="21" height="88.5"/>
	<rect x="172.7" y="84.9" transform="matrix(-0.9378 0.347 -0.347 -0.9378 399.8526 186.7227)" width="21" height="88.5"/>
	<rect x="122.1" y="169.5" width="24" height="113"/>
	<rect x="155.1" y="169.5" width="24" height="113"/>
</g>
<polygon points="180.1,153.5 194.1,199.5 110.1,199.5 125.1,140.9 179.1,140.9 "/>
<circle cx="259.4" cy="142.7" r="18.2"/>
<rect x="254.3" y="157.2" width="10.6" height="15.7"/>
<path d="M263,226h-7.9c-6.6,0-12-5.4-12-12v-34.2c0-6.6,5.4-12,12-12h7.9c6.6,0,12,5.4,12,12V214C275,220.6,269.6,226,263,226z"/>
<rect x="223.1" y="145" transform="matrix(-0.2545 0.9671 -0.9671 -0.2545 451.3922 -8.4719)" width="11.7" height="49.5"/>
<rect x="271.4" y="172" transform="matrix(-0.9378 0.347 -0.347 -0.9378 605.6728 285.0149)" width="11.7" height="49.5"/>
<rect x="243.2" y="219.3" width="13.4" height="63.2"/>
<rect x="261.6" y="219.3" width="13.4" height="63.2"/>
</svg>
