<?xml version="1.0" encoding="utf-8"?>
<!-- Generator: Adobe Illustrator 22.1.0, SVG Export Plug-In . SVG Version: 6.00 Build 0)  -->
<svg version="1.1" id="Layer_1" xmlns="http://www.w3.org/2000/svg" xmlns:xlink="http://www.w3.org/1999/xlink" x="0px" y="0px"
	 viewBox="0 0 371 364" style="enable-background:new 0 0 371 364;" xml:space="preserve">
<style type="text/css">
	.st0{fill:#E6E6E6;}
	.st1{fill:#C1272D;}
	.st2{fill:#FF4D5A;}
	.st3{fill:#FFFFFF;}
	.st4{fill:#EBF6FF;}
</style>
<rect x="37" y="196" class="st0" width="291" height="168"/>
<rect x="65" y="46" class="st1" width="52" height="97"/>
<polygon class="st2" points="0,196 371,196 183,0 "/>
<rect x="85.2" y="248" class="st3" width="63.8" height="116"/>
<rect x="186" y="252" class="st2" width="117" height="75"/>
<rect x="89.5" y="253.5" class="st2" width="55" height="110.5"/>
<circle class="st1" cx="98.5" cy="310.5" r="4"/>
<rect x="96.5" y="259.5" class="st4" width="41" height="41"/>
<rect x="116.5" y="258.5" class="st2" width="1" height="45"/>
<rect x="117.5" y="257.5" transform="matrix(4.547480e-11 -1 1 4.547480e-11 -162 398)" class="st2" width="1" height="45"/>
<rect x="190.5" y="255.1" class="st4" width="108.3" height="69.4"/>
<rect x="243.5" y="253.5" class="st2" width="2" height="73"/>
<rect x="188.5" y="288.5" class="st2" width="112" height="2"/>
</svg>
