<?xml version="1.0" encoding="utf-8"?>
<!-- Generator: Adobe Illustrator 22.1.0, SVG Export Plug-In . SVG Version: 6.00 Build 0)  -->
<svg version="1.1" id="Layer_1" xmlns="http://www.w3.org/2000/svg" xmlns:xlink="http://www.w3.org/1999/xlink" x="0px" y="0px"
	 viewBox="0 0 478 272.5" style="enable-background:new 0 0 478 272.5;" xml:space="preserve">
<style type="text/css">
	.st0{fill:#EF95DE;}
	.st1{fill:url(#SVGID_1_);}
	.st2{fill:#FFFFFF;}
	.st3{font-family:'CourierNewPSMT';}
	.st4{font-size:48px;}
	.st5{font-family:'Consolas';}
	.st6{font-size:10px;}
</style>
<g id="Layer_2">
	<path class="st0" d="M187.6,245.9c-0.4,0.6-0.8,1.2-1.2,1.8c-0.3-0.5-0.5-1.1-0.7-1.6C186.3,246.1,186.9,246,187.6,245.9z"/>
	<path class="st0" d="M137.4,155.4c-4.2-0.9-8.6-1.5-13.1-1.8c1.7-1.8,3.2-3.7,4.6-5.7C131.6,150.6,134.4,153.1,137.4,155.4z"/>
	<path class="st0" d="M299.6,247.2c-2.6,0.9-5.3,1.7-8.1,2.2c0.8-1.5,1.5-3,2.1-4.6C295.6,245.7,297.6,246.5,299.6,247.2z"/>
	<linearGradient id="SVGID_1_" gradientUnits="userSpaceOnUse" x1="0" y1="136.25" x2="478" y2="136.25">
		<stop  offset="0" style="stop-color:#543EFF"/>
		<stop  offset="1" style="stop-color:#FAACFF"/>
	</linearGradient>
	<path class="st1" d="M478,153.5c0,25.6-39.8,46.6-90.1,48.3c-5.7,22.9-27.8,40-54.3,40c-6.6,0-13-1.1-19-3.1c-2-0.7-4-1.5-6-2.4
		c-0.6,1.6-1.3,3.1-2.1,4.5c-8.9,16.5-28.9,28.1-52.2,28.1c-24,0-44.6-12.3-53-29.7c0.4-0.6,0.8-1.2,1.2-1.8
		c-0.6,0.1-1.3,0.1-1.9,0.2c0.2,0.5,0.5,1.1,0.7,1.6c-13.3,19.8-39.1,33.3-68.8,33.3c-37.5,0-68.8-21.4-76.5-50
		c-1.8,0.2-3.6,0.3-5.5,0.3C22.7,222.7,0,202.2,0,177c0-23.3,19.3-42.5,44.2-45.3c-4-7.9-6.2-16.8-6.2-26.2
		c0-32.2,26.1-58.4,58.4-58.4c10.4,0,20.2,2.7,28.7,7.5C136.3,22.8,166.7,0,202.3,0c34.6,0,64.3,21.5,76.3,51.9
		c8.6-1.4,17.8-2.1,27.4-2.1c46,0,83.3,17.2,83.3,38.5c0,6-3,11.7-8.3,16.8h0.1C434.6,105,478,126.7,478,153.5z"/>
	<path class="st0" d="M187.6,245.9c-0.4,0.6-0.8,1.2-1.2,1.8c-0.3-0.5-0.5-1.1-0.7-1.6C186.3,246.1,186.9,246,187.6,245.9z"/>
</g>
<text transform="matrix(1 0 0 1 92.9819 149.5757)"><tspan x="0" y="0" class="st2 st3 st4">Game Over</tspan><tspan x="22.4" y="12" class="st2 st5 st6">You failed to follow society’s norms...</tspan><tspan x="-65.6" y="24" class="st2 st5 st6">(We don’t agree with them, you should be free to choose your own path.)</tspan></text>
</svg>
