<?xml version="1.0" encoding="utf-8"?>
<!-- Generator: Adobe Illustrator 22.1.0, SVG Export Plug-In . SVG Version: 6.00 Build 0)  -->
<svg version="1.1" id="Layer_1" xmlns="http://www.w3.org/2000/svg" xmlns:xlink="http://www.w3.org/1999/xlink" x="0px" y="0px"
	 viewBox="0 0 10336 721" style="enable-background:new 0 0 10336 721;" xml:space="preserve">
<style type="text/css">
	.st0{fill:#FFFBA9;}
	.st1{fill:#FF9076;}
	.st2{fill:#FFEF5F;}
	.st3{fill:#87BAC6;}
	.st4{fill:#FCFF83;}
	.st5{fill:#FFFFFF;}
	.st6{fill:#B2C0CC;}
	.st7{fill:#FFEC64;}
</style>
<rect x="0.5" y="0.5" class="st0" width="10335" height="720"/>
<rect x="0.5" y="609.5" class="st1" width="10336" height="111"/>
<g>
	<path class="st2" d="M568,570.5c0,31.8-25.7,57.5-57.5,57.5c-17.9,0-33.9-8.2-44.5-21c9.2,6.3,20.4,10,32.5,10
		c31.8,0,57.5-25.7,57.5-57.5c0-13.8-4.9-26.5-13-36.5C558.1,533.4,568,550.8,568,570.5z"/>
	<path class="st3" d="M556,559.5c0,31.8-25.7,57.5-57.5,57.5c-12.1,0-23.2-3.7-32.5-10c-8.1-9.9-13-22.6-13-36.5
		c0-31.8,25.7-57.5,57.5-57.5c12.1,0,23.2,3.7,32.5,10C551.1,533,556,545.7,556,559.5z"/>
	<polygon class="st4" points="501.6,579.9 489.3,566.4 471.2,568.9 480.3,553 472.4,536.6 490.3,540.3 503.4,527.7 505.4,545.8 
		521.5,554.5 504.8,562 	"/>
</g>
<g>
	<path class="st2" d="M1841.4,620.9c-10.2-17.4-4.3-39.8,13.1-49.9c9.8-5.7,21.2-6.4,31.1-2.7c-7.1-0.5-14.4,1-21,4.9
		c-17.4,10.2-23.3,32.5-13.1,49.9c4.4,7.6,11.2,13,18.8,15.8C1858.8,638.1,1847.8,631.7,1841.4,620.9z"/>
	<path class="st3" d="M1851.5,623.1c-10.2-17.4-4.3-39.8,13.1-49.9c6.6-3.9,13.9-5.4,21-4.9c7.6,2.8,14.4,8.2,18.8,15.8
		c10.2,17.4,4.3,39.8-13.1,49.9c-6.6,3.9-13.9,5.4-21,4.9C1862.7,636.1,1856,630.7,1851.5,623.1z"/>
	<polygon class="st4" points="1874.8,594.5 1885.9,597.9 1895,590.8 1895.1,602.4 1904.7,608.9 1893.7,612.6 1890.5,623.7 
		1883.6,614.4 1872.1,614.8 1878.8,605.3 	"/>
</g>
<g>
	<path class="st2" d="M3810.3,572.5c-31.9,52.5-100.3,69.2-152.7,37.3c-29.6-18-47.8-47.6-52.4-79.4c8.9,19.7,23.7,37.1,43.6,49.2
		c52.5,31.9,120.9,15.2,152.7-37.3c13.9-22.9,18.6-48.8,15.1-73.3C3831.1,501.2,3830.1,539.9,3810.3,572.5z"/>
	<path class="st3" d="M3801.5,542.3c-31.9,52.5-100.3,69.2-152.7,37.3c-19.9-12.1-34.7-29.5-43.6-49.2c-3.5-24.6,1.2-50.5,15.1-73.3
		c31.9-52.5,100.3-69.2,152.7-37.3c19.9,12.1,34.7,29.5,43.6,49.2C3820,493.5,3815.4,519.4,3801.5,542.3z"/>
	<polygon class="st4" points="3691,521.4 3684.3,486.7 3652,472.6 3682.9,455.5 3686.3,420.4 3712.1,444.5 3746.6,437 3731.6,468.9 
		3749.5,499.3 3714.4,495 	"/>
</g>
<g>
	<path class="st2" d="M5389.8,575.2c-2.9,45.7-42.3,80.5-88,77.6c-25.8-1.6-48.1-14.9-62.1-34.3c12.7,10,28.5,16.3,45.9,17.4
		c45.7,2.9,85.1-31.9,88-77.6c1.3-19.9-4.6-38.7-15.5-53.7C5378.9,520.9,5391.6,546.8,5389.8,575.2z"/>
	<path class="st3" d="M5373.5,558.3c-2.9,45.7-42.3,80.5-88,77.6c-17.4-1.1-33.1-7.4-45.9-17.4c-10.8-15-16.7-33.8-15.5-53.7
		c2.9-45.7,42.3-80.5,88-77.6c17.4,1.1,33.1,7.4,45.9,17.4C5368.9,519.6,5374.8,538.3,5373.5,558.3z"/>
	<polygon class="st4" points="5293.3,582.7 5276.9,562.2 5250.6,564.1 5265.1,542.1 5255.2,517.7 5280.6,524.7 5300.7,507.7 
		5301.9,534 5324.3,547.9 5299.6,557.2 	"/>
</g>
<g>
	<path class="st2" d="M5403,644.9c-27.6-0.6-49.5-23.4-48.9-51c0.3-15.6,7.7-29.3,19.1-38.3c-5.7,7.9-9.1,17.6-9.3,28
		c-0.6,27.6,21.3,50.4,48.9,51c12,0.2,23.1-3.8,31.9-10.7C5435.4,637,5420.1,645.3,5403,644.9z"/>
	<path class="st3" d="M5412.8,634.7c-27.6-0.6-49.5-23.4-48.9-51c0.2-10.5,3.6-20.1,9.3-28c8.8-6.9,19.9-10.9,31.9-10.7
		c27.6,0.6,49.5,23.4,48.9,51c-0.2,10.5-3.6,20.1-9.3,28C5435.9,630.9,5424.8,634.9,5412.8,634.7z"/>
	<polygon class="st4" points="5396,587.1 5407.9,576.6 5406.1,560.9 5419.7,569 5434.2,562.5 5430.6,577.9 5441.3,589.6 5425.5,591 
		5417.7,604.8 5411.5,590.2 	"/>
</g>
<g>
	<path class="st2" d="M6160.7,659.9c-35.9-0.7-64.4-30.4-63.6-66.3c0.4-20.2,10-38.1,24.8-49.8c-7.4,10.3-11.8,22.8-12.1,36.4
		c-0.7,35.9,27.8,65.6,63.6,66.3c15.6,0.3,30.1-4.9,41.5-13.9C6202.8,649.6,6183,660.4,6160.7,659.9z"/>
	<path class="st3" d="M6173.4,646.6c-35.9-0.7-64.4-30.4-63.6-66.3c0.3-13.6,4.7-26.2,12.1-36.4c11.4-9,25.9-14.2,41.5-13.9
		c35.9,0.7,64.4,30.4,63.6,66.3c-0.3,13.6-4.7,26.2-12.1,36.4C6203.5,641.7,6189,646.9,6173.4,646.6z"/>
	<polygon class="st4" points="6151.6,584.7 6167.1,571.1 6164.8,550.6 6182.5,561.3 6201.2,552.7 6196.6,572.8 6210.5,588 
		6190,589.8 6179.8,607.7 6171.8,588.8 	"/>
</g>
<g>
	<path class="st2" d="M6301.3,430.3c60.9-4.5,113.8,41.1,118.4,102c2.6,34.3-10.9,66.2-34,88.2c10.8-18.6,16.3-40.6,14.6-63.6
		c-4.5-60.9-57.5-106.5-118.4-102c-26.5,2-50.2,13.1-68,30.2C6231.7,454.6,6263.6,433.1,6301.3,430.3z"/>
	<path class="st3" d="M6282,454.9c60.9-4.5,113.8,41.1,118.4,102c1.7,23.1-3.8,45-14.6,63.6c-17.8,17-41.5,28.2-68,30.2
		c-60.9,4.5-113.8-41.1-118.4-102c-1.7-23.1,3.8-45,14.6-63.6C6231.8,468,6255.5,456.8,6282,454.9z"/>
	<polygon class="st4" points="6328.9,556.2 6304.7,581.6 6312,615.9 6280.3,600.8 6250,618.3 6254.6,583.6 6228.5,560.1 6263,553.7 
		6277.3,521.7 6294,552.5 	"/>
</g>
<g>
	<path class="st2" d="M2798.2,619.3c-15.6,22.8-46.7,28.5-69.5,12.9c-12.8-8.8-20.3-22.5-21.5-36.9c3.5,9.1,9.7,17.2,18.3,23.2
		c22.8,15.6,53.9,9.8,69.5-12.9c6.8-9.9,9.5-21.4,8.6-32.5C2809.4,587.8,2807.9,605.1,2798.2,619.3z"/>
	<path class="st3" d="M2795,605.5c-15.6,22.8-46.7,28.5-69.5,12.9c-8.6-5.9-14.8-14.1-18.3-23.2c-1-11.1,1.8-22.6,8.6-32.5
		c15.6-22.8,46.7-28.5,69.5-12.9c8.6,5.9,14.8,14.1,18.3,23.2C2804.6,584.1,2801.8,595.6,2795,605.5z"/>
	<polygon class="st4" points="2746,593.3 2743.9,577.6 2729.7,570.5 2744,563.6 2746.4,547.9 2757.4,559.4 2773,556.8 2765.5,570.8 
		2772.8,584.9 2757.2,582.1 	"/>
</g>
<g>
	<path class="st2" d="M1962.5,642.9c-42.5-0.9-76.3-36-75.4-78.5c0.5-24,11.9-45.2,29.4-58.9c-8.7,12.2-14,27.1-14.3,43.2
		c-0.9,42.5,32.9,77.7,75.4,78.5c18.5,0.4,35.7-5.8,49.2-16.4C2012.4,630.7,1988.8,643.5,1962.5,642.9z"/>
	<path class="st3" d="M1977.5,627.2c-42.5-0.9-76.3-36-75.4-78.5c0.3-16.1,5.6-31,14.3-43.2c13.5-10.6,30.6-16.8,49.2-16.4
		c42.5,0.9,76.3,36,75.4,78.5c-0.3,16.1-5.6,31-14.3,43.2C2013.2,621.3,1996,627.5,1977.5,627.2z"/>
	<polygon class="st4" points="1951.6,553.8 1970.1,537.7 1967.3,513.5 1988.2,526 2010.5,515.9 2005,539.7 2021.5,557.7 
		1997.2,559.8 1985.1,581.1 1975.6,558.6 	"/>
</g>
<g>
	<path class="st2" d="M7282,628.9c-27.6-0.6-49.5-23.4-48.9-51c0.3-15.6,7.7-29.3,19.1-38.3c-5.7,7.9-9.1,17.6-9.3,28
		c-0.6,27.6,21.3,50.4,48.9,51c12,0.2,23.1-3.8,31.9-10.7C7314.4,621,7299.1,629.3,7282,628.9z"/>
	<path class="st3" d="M7291.8,618.7c-27.6-0.6-49.5-23.4-48.9-51c0.2-10.5,3.6-20.1,9.3-28c8.8-6.9,19.9-10.9,31.9-10.7
		c27.6,0.6,49.5,23.4,48.9,51c-0.2,10.5-3.6,20.1-9.3,28C7314.9,614.9,7303.8,618.9,7291.8,618.7z"/>
	<polygon class="st4" points="7275,571.1 7286.9,560.6 7285.1,544.9 7298.7,553 7313.2,546.5 7309.6,561.9 7320.3,573.6 7304.5,575 
		7296.7,588.8 7290.5,574.2 	"/>
</g>
<g>
	<path class="st2" d="M7377.9,598.3c1.5,15.9-10.3,30-26.2,31.5c-9,0.8-17.4-2.5-23.3-8.5c4.9,2.7,10.7,4.1,16.8,3.5
		c15.9-1.5,27.7-15.6,26.2-31.5c-0.6-6.9-3.7-13.1-8.2-17.7C7371.2,580.2,7377,588.4,7377.9,598.3z"/>
	<path class="st3" d="M7371.3,593.4c1.5,15.9-10.3,30-26.2,31.5c-6,0.6-11.8-0.8-16.8-3.5c-4.5-4.6-7.6-10.7-8.2-17.7
		c-1.5-15.9,10.3-30,26.2-31.5c6-0.6,11.8,0.8,16.8,3.5C7367.7,580.3,7370.7,586.4,7371.3,593.4z"/>
	<polygon class="st4" points="7345,606.1 7338.2,599.9 7329.2,602 7333.1,593.6 7328.3,585.7 7337.5,586.8 7343.5,579.8 
		7345.3,588.8 7353.8,592.4 7345.8,597 	"/>
</g>
<g>
	<path class="st2" d="M8352.4,578.1c-68.3,98.8-203.7,123.6-302.5,55.3c-55.8-38.5-87.9-98.4-93.1-161.1c15.1,39.6,42,75.1,79.5,101
		c98.8,68.3,234.3,43.5,302.5-55.3c29.8-43.1,41.8-93.1,37.8-141.5C8401.4,441.3,8394.8,516.7,8352.4,578.1z"/>
	<path class="st3" d="M8338.8,518.1c-68.3,98.8-203.7,123.6-302.5,55.3c-37.5-25.9-64.3-61.5-79.5-101c-4-48.4,8.1-98.4,37.8-141.5
		c68.3-98.8,203.7-123.6,302.5-55.3c37.5,25.9,64.3,61.5,79.5,101C8380.6,425,8368.5,475,8338.8,518.1z"/>
	<polygon class="st4" points="8125.5,464.6 8116.4,396.2 8054.9,365 8117.1,335.2 8127.9,267 8175.4,317 8243.6,306.2 8210.7,366.8 
		8242.1,428.3 8174.2,415.8 	"/>
</g>
<g>
	<path class="st2" d="M9360.2,610c-17.4,25.2-52,31.5-77.2,14.1c-14.2-9.8-22.4-25.1-23.8-41.1c3.9,10.1,10.7,19.2,20.3,25.8
		c25.2,17.4,59.8,11.1,77.2-14.1c7.6-11,10.7-23.7,9.7-36.1C9372.6,575.1,9371,594.4,9360.2,610z"/>
	<path class="st3" d="M9356.7,594.7c-17.4,25.2-52,31.5-77.2,14.1c-9.6-6.6-16.4-15.7-20.3-25.8c-1-12.3,2.1-25.1,9.7-36.1
		c17.4-25.2,52-31.5,77.2-14.1c9.6,6.6,16.4,15.7,20.3,25.8C9367.3,571,9364.3,583.7,9356.7,594.7z"/>
	<polygon class="st4" points="9302.3,581.1 9299.9,563.6 9284.2,555.6 9300.1,548 9302.9,530.7 9315,543.4 9332.4,540.6 9324,556.1 
		9332,571.8 9314.7,568.6 	"/>
</g>
<g>
	<path class="st2" d="M9872.5,634.7c-74.7-24.8-115-105.5-90.2-180.2c14-42.1,45.8-73.3,84.2-88.1c-22.1,16.8-39.6,40.2-49,68.5
		c-24.8,74.7,15.5,155.3,90.2,180.2c32.5,10.8,66.2,9.3,95.9-2.1C9967.5,640.4,9918.9,650.1,9872.5,634.7z"/>
	<path class="st3" d="M9907.8,615.1c-74.7-24.8-115-105.5-90.2-180.2c9.4-28.3,26.9-51.7,49-68.5c29.7-11.4,63.4-12.9,95.9-2.1
		c74.7,24.8,115,105.5,90.2,180.2c-9.4,28.3-26.9,51.7-49,68.5C9974,624.3,9940.3,625.9,9907.8,615.1z"/>
	<polygon class="st4" points="9902.3,471.1 9943.7,452.9 9952.1,408.5 9982.2,442.1 10027.1,436.4 10004.3,475.5 10023.6,516.4 
		9979.4,506.8 9946.5,537.8 9942,492.8 	"/>
</g>
<g>
	<path class="st2" d="M10088.4,608.7c-4,23.1-25.9,38.6-49.1,34.7c-13-2.2-23.7-10.2-29.7-20.9c5.9,5.8,13.6,9.9,22.4,11.4
		c23.1,4,45.1-11.5,49.1-34.7c1.7-10.1-0.2-19.9-4.9-28.2C10085.8,580.4,10090.8,594.3,10088.4,608.7z"/>
	<path class="st3" d="M10081,599.2c-4,23.1-25.9,38.6-49.1,34.7c-8.8-1.5-16.5-5.6-22.4-11.4c-4.7-8.2-6.7-18.1-4.9-28.2
		c4-23.1,25.9-38.6,49.1-34.7c8.8,1.5,16.5,5.6,22.4,11.4C10080.8,579.2,10082.7,589.1,10081,599.2z"/>
	<polygon class="st4" points="10038.8,607.2 10031.6,595.9 10018.1,595.4 10026.7,585 10023,572 10035.5,577 10046.7,569.5 
		10045.9,582.9 10056.5,591.2 10043.5,594.6 	"/>
</g>
<g>
	<rect x="174" y="127" class="st5" width="561" height="245"/>
	<rect x="191.8" y="143" class="st6" width="523.2" height="213"/>
	<path class="st5" d="M324,259h-87c-6.6,0-12-5.4-12-12v-22c0-6.6,5.4-12,12-12h87c6.6,0,12,5.4,12,12v22
		C336,253.6,330.6,259,324,259z"/>
	<path class="st5" d="M262,189h35c6.6,0,12,5.4,12,12v10c0,6.6-5.4,12-12,12h-35c-6.6,0-12-5.4-12-12v-10
		C250,194.4,255.4,189,262,189z"/>
	<path class="st5" d="M349,276h-11c-6.6,0-12-5.4-12-12v-3c0-6.6,5.4-12,12-12h11c6.6,0,12,5.4,12,12v3C361,270.6,355.6,276,349,276
		z"/>
	<path class="st5" d="M271.5,269h-19c-4.7,0-8.5-3.8-8.5-8.5l0,0c0-4.7,3.8-8.5,8.5-8.5h19c4.7,0,8.5,3.8,8.5,8.5l0,0
		C280,265.2,276.2,269,271.5,269z"/>
	<circle class="st7" cx="555" cy="195" r="34"/>
	<path class="st5" d="M505,213h-44c-6.6,0-12-5.4-12-12v0c0-6.6,5.4-12,12-12h44c6.6,0,12,5.4,12,12v0C517,207.6,511.6,213,505,213z
		"/>
	<path class="st5" d="M501,201h40c6.6,0,12,5.4,12,12v6c0,6.6-5.4,12-12,12h-40c-6.6,0-12-5.4-12-12v-6C489,206.4,494.4,201,501,201
		z"/>
	<path class="st5" d="M480,286h-22c-6.6,0-12-5.4-12-12l0,0c0-6.6,5.4-12,12-12h22c6.6,0,12,5.4,12,12l0,0
		C492,280.6,486.6,286,480,286z"/>
	<path class="st5" d="M585,269h101c6.6,0,12,5.4,12,12v28c0,6.6-5.4,12-12,12H585c-6.6,0-12-5.4-12-12v-28
		C573,274.4,578.4,269,585,269z"/>
	<path class="st5" d="M597,249h41c6.6,0,12,5.4,12,12v8c0,6.6-5.4,12-12,12h-41c-6.6,0-12-5.4-12-12v-8C585,254.4,590.4,249,597,249
		z"/>
	<path class="st5" d="M665,252h-19c-4.4,0-8-3.6-8-8v0c0-4.4,3.6-8,8-8h19c4.4,0,8,3.6,8,8v0C673,248.4,669.4,252,665,252z"/>
	<path class="st5" d="M688,337h-28c-5.5,0-10-4.5-10-10l0,0c0-5.5,4.5-10,10-10h28c5.5,0,10,4.5,10,10l0,0
		C698,332.5,693.5,337,688,337z"/>
	<path class="st5" d="M556,286h17c4.4,0,8,3.6,8,8l0,0c0,4.4-3.6,8-8,8h-17c-4.4,0-8-3.6-8-8l0,0C548,289.6,551.6,286,556,286z"/>
	<rect x="448" y="138" class="st5" width="12" height="222"/>
	<rect x="188" y="241" class="st5" width="534" height="11"/>
</g>
<g>
	<rect x="1858" y="127" class="st5" width="561" height="245"/>
	<rect x="1875.8" y="143" class="st6" width="523.2" height="213"/>
	<path class="st5" d="M2071,350h-87c-6.6,0-12-5.4-12-12v-22c0-6.6,5.4-12,12-12h87c6.6,0,12,5.4,12,12v22
		C2083,344.6,2077.6,350,2071,350z"/>
	<path class="st5" d="M1946,300h35c6.6,0,12,5.4,12,12v10c0,6.6-5.4,12-12,12h-35c-6.6,0-12-5.4-12-12v-10
		C1934,305.4,1939.4,300,1946,300z"/>
	<path class="st5" d="M1969,201h-11c-6.6,0-12-5.4-12-12v-3c0-6.6,5.4-12,12-12h11c6.6,0,12,5.4,12,12v3
		C1981,195.6,1975.6,201,1969,201z"/>
	<path class="st5" d="M1991.5,209h-19c-4.7,0-8.5-3.8-8.5-8.5v0c0-4.7,3.8-8.5,8.5-8.5h19c4.7,0,8.5,3.8,8.5,8.5v0
		C2000,205.2,1996.2,209,1991.5,209z"/>
	<path class="st5" d="M2241,186h-44c-6.6,0-12-5.4-12-12v0c0-6.6,5.4-12,12-12h44c6.6,0,12,5.4,12,12v0
		C2253,180.6,2247.6,186,2241,186z"/>
	<path class="st5" d="M2245,201h40c6.6,0,12,5.4,12,12v6c0,6.6-5.4,12-12,12h-40c-6.6,0-12-5.4-12-12v-6
		C2233,206.4,2238.4,201,2245,201z"/>
	<path class="st5" d="M2164,286h-22c-6.6,0-12-5.4-12-12l0,0c0-6.6,5.4-12,12-12h22c6.6,0,12,5.4,12,12l0,0
		C2176,280.6,2170.6,286,2164,286z"/>
	<path class="st5" d="M2244,164h101c6.6,0,12,5.4,12,12v28c0,6.6-5.4,12-12,12h-101c-6.6,0-12-5.4-12-12v-28
		C2232,169.4,2237.4,164,2244,164z"/>
	<path class="st5" d="M2260,288h41c6.6,0,12,5.4,12,12v8c0,6.6-5.4,12-12,12h-41c-6.6,0-12-5.4-12-12v-8
		C2248,293.4,2253.4,288,2260,288z"/>
	<path class="st5" d="M2349,252h-19c-4.4,0-8-3.6-8-8v0c0-4.4,3.6-8,8-8h19c4.4,0,8,3.6,8,8v0C2357,248.4,2353.4,252,2349,252z"/>
	<path class="st5" d="M2372,337h-28c-5.5,0-10-4.5-10-10l0,0c0-5.5,4.5-10,10-10h28c5.5,0,10,4.5,10,10l0,0
		C2382,332.5,2377.5,337,2372,337z"/>
	<path class="st5" d="M2240,286h17c4.4,0,8,3.6,8,8l0,0c0,4.4-3.6,8-8,8h-17c-4.4,0-8-3.6-8-8l0,0C2232,289.6,2235.6,286,2240,286z"
		/>
	<rect x="2132" y="138" class="st5" width="12" height="222"/>
	<rect x="1871" y="241" class="st5" width="534" height="11"/>
</g>
<g>
	<rect x="3826" y="114" class="st5" width="561" height="245"/>
	<rect x="3843.8" y="130" class="st6" width="523.2" height="213"/>
	<path class="st5" d="M3995,328h-87c-6.6,0-12-5.4-12-12v-22c0-6.6,5.4-12,12-12h87c6.6,0,12,5.4,12,12v22
		C4007,322.6,4001.6,328,3995,328z"/>
	<path class="st5" d="M3878,153h35c6.6,0,12,5.4,12,12v10c0,6.6-5.4,12-12,12h-35c-6.6,0-12-5.4-12-12v-10
		C3866,158.4,3871.4,153,3878,153z"/>
	<path class="st5" d="M4005,300h-11c-6.6,0-12-5.4-12-12v-3c0-6.6,5.4-12,12-12h11c6.6,0,12,5.4,12,12v3
		C4017,294.6,4011.6,300,4005,300z"/>
	<path class="st5" d="M3929.5,195h-19c-4.7,0-8.5-3.8-8.5-8.5v0c0-4.7,3.8-8.5,8.5-8.5h19c4.7,0,8.5,3.8,8.5,8.5v0
		C3938,191.2,3934.2,195,3929.5,195z"/>
	<path class="st5" d="M4239,205h-44c-6.6,0-12-5.4-12-12v0c0-6.6,5.4-12,12-12h44c6.6,0,12,5.4,12,12v0
		C4251,199.6,4245.6,205,4239,205z"/>
	<path class="st5" d="M4153,188h40c6.6,0,12,5.4,12,12v6c0,6.6-5.4,12-12,12h-40c-6.6,0-12-5.4-12-12v-6
		C4141,193.4,4146.4,188,4153,188z"/>
	<path class="st5" d="M4033,310h-22c-6.6,0-12-5.4-12-12l0,0c0-6.6,5.4-12,12-12h22c6.6,0,12,5.4,12,12l0,0
		C4045,304.6,4039.6,310,4033,310z"/>
	<path class="st5" d="M4237,256h101c6.6,0,12,5.4,12,12v28c0,6.6-5.4,12-12,12h-101c-6.6,0-12-5.4-12-12v-28
		C4225,261.4,4230.4,256,4237,256z"/>
	<path class="st5" d="M4263,298h41c6.6,0,12,5.4,12,12v8c0,6.6-5.4,12-12,12h-41c-6.6,0-12-5.4-12-12v-8
		C4251,303.4,4256.4,298,4263,298z"/>
	<path class="st5" d="M4232,186h-19c-4.4,0-8-3.6-8-8v0c0-4.4,3.6-8,8-8h19c4.4,0,8,3.6,8,8v0C4240,182.4,4236.4,186,4232,186z"/>
	<path class="st5" d="M4243,276h-28c-5.5,0-10-4.5-10-10l0,0c0-5.5,4.5-10,10-10h28c5.5,0,10,4.5,10,10l0,0
		C4253,271.5,4248.5,276,4243,276z"/>
	<path class="st5" d="M4208,300h17c4.4,0,8,3.6,8,8l0,0c0,4.4-3.6,8-8,8h-17c-4.4,0-8-3.6-8-8l0,0C4200,303.6,4203.6,300,4208,300z"
		/>
	<rect x="4100" y="125" class="st5" width="12" height="222"/>
	<rect x="3838" y="228" class="st5" width="534" height="11"/>
</g>
<g>
	<rect x="5510" y="114" class="st5" width="561" height="245"/>
	<rect x="5527.8" y="130" class="st6" width="523.2" height="213"/>
	<path class="st5" d="M5697,312h-87c-6.6,0-12-5.4-12-12v-22c0-6.6,5.4-12,12-12h87c6.6,0,12,5.4,12,12v22
		C5709,306.6,5703.6,312,5697,312z"/>
	<path class="st5" d="M5580,278h35c6.6,0,12,5.4,12,12v10c0,6.6-5.4,12-12,12h-35c-6.6,0-12-5.4-12-12v-10
		C5568,283.4,5573.4,278,5580,278z"/>
	<path class="st5" d="M5626,326h-11c-6.6,0-12-5.4-12-12v-3c0-6.6,5.4-12,12-12h11c6.6,0,12,5.4,12,12v3
		C5638,320.6,5632.6,326,5626,326z"/>
	<path class="st5" d="M5618.5,184h-19c-4.7,0-8.5-3.8-8.5-8.5v0c0-4.7,3.8-8.5,8.5-8.5h19c4.7,0,8.5,3.8,8.5,8.5v0
		C5627,180.2,5623.2,184,5618.5,184z"/>
	<path class="st5" d="M5962,196h-44c-6.6,0-12-5.4-12-12v0c0-6.6,5.4-12,12-12h44c6.6,0,12,5.4,12,12v0
		C5974,190.6,5968.6,196,5962,196z"/>
	<path class="st5" d="M5952,154h40c6.6,0,12,5.4,12,12v6c0,6.6-5.4,12-12,12h-40c-6.6,0-12-5.4-12-12v-6
		C5940,159.4,5945.4,154,5952,154z"/>
	<path class="st5" d="M5816,273h-22c-6.6,0-12-5.4-12-12l0,0c0-6.6,5.4-12,12-12h22c6.6,0,12,5.4,12,12l0,0
		C5828,267.6,5822.6,273,5816,273z"/>
	<path class="st5" d="M5921,256h101c6.6,0,12,5.4,12,12v28c0,6.6-5.4,12-12,12h-101c-6.6,0-12-5.4-12-12v-28
		C5909,261.4,5914.4,256,5921,256z"/>
	<path class="st5" d="M5880,295h41c6.6,0,12,5.4,12,12v8c0,6.6-5.4,12-12,12h-41c-6.6,0-12-5.4-12-12v-8
		C5868,300.4,5873.4,295,5880,295z"/>
	<path class="st5" d="M5978,265h-19c-4.4,0-8-3.6-8-8l0,0c0-4.4,3.6-8,8-8h19c4.4,0,8,3.6,8,8l0,0C5986,261.4,5982.4,265,5978,265z"
		/>
	<path class="st5" d="M6024,324h-28c-5.5,0-10-4.5-10-10l0,0c0-5.5,4.5-10,10-10h28c5.5,0,10,4.5,10,10l0,0
		C6034,319.5,6029.5,324,6024,324z"/>
	<path class="st5" d="M5892,273h17c4.4,0,8,3.6,8,8l0,0c0,4.4-3.6,8-8,8h-17c-4.4,0-8-3.6-8-8l0,0C5884,276.6,5887.6,273,5892,273z"
		/>
	<rect x="5784" y="125" class="st5" width="12" height="222"/>
	<rect x="5525" y="228" class="st5" width="534" height="11"/>
</g>
<g>
	<rect x="7378" y="119" class="st5" width="561" height="245"/>
	<rect x="7395.8" y="135" class="st6" width="523.2" height="213"/>
	<path class="st5" d="M7522,201h-87c-6.6,0-12-5.4-12-12v-22c0-6.6,5.4-12,12-12h87c6.6,0,12,5.4,12,12v22
		C7534,195.6,7528.6,201,7522,201z"/>
	<path class="st5" d="M7425,147h35c6.6,0,12,5.4,12,12v10c0,6.6-5.4,12-12,12h-35c-6.6,0-12-5.4-12-12v-10
		C7413,152.4,7418.4,147,7425,147z"/>
	<path class="st5" d="M7535,205h-11c-6.6,0-12-5.4-12-12v-3c0-6.6,5.4-12,12-12h11c6.6,0,12,5.4,12,12v3
		C7547,199.6,7541.6,205,7535,205z"/>
	<path class="st5" d="M7475.5,213h-19c-4.7,0-8.5-3.8-8.5-8.5v0c0-4.7,3.8-8.5,8.5-8.5h19c4.7,0,8.5,3.8,8.5,8.5v0
		C7484,209.2,7480.2,213,7475.5,213z"/>
	<path class="st5" d="M7765,201h-44c-6.6,0-12-5.4-12-12v0c0-6.6,5.4-12,12-12h44c6.6,0,12,5.4,12,12v0
		C7777,195.6,7771.6,201,7765,201z"/>
	<path class="st5" d="M7458,279h40c6.6,0,12,5.4,12,12v6c0,6.6-5.4,12-12,12h-40c-6.6,0-12-5.4-12-12v-6
		C7446,284.4,7451.4,279,7458,279z"/>
	<path class="st5" d="M7523,321h-22c-6.6,0-12-5.4-12-12l0,0c0-6.6,5.4-12,12-12h22c6.6,0,12,5.4,12,12l0,0
		C7535,315.6,7529.6,321,7523,321z"/>
	<path class="st5" d="M7737,279h101c6.6,0,12,5.4,12,12v28c0,6.6-5.4,12-12,12h-101c-6.6,0-12-5.4-12-12v-28
		C7725,284.4,7730.4,279,7737,279z"/>
	<path class="st5" d="M7768,185h41c6.6,0,12,5.4,12,12v8c0,6.6-5.4,12-12,12h-41c-6.6,0-12-5.4-12-12v-8
		C7756,190.4,7761.4,185,7768,185z"/>
	<path class="st5" d="M7815,191h-19c-4.4,0-8-3.6-8-8v0c0-4.4,3.6-8,8-8h19c4.4,0,8,3.6,8,8v0C7823,187.4,7819.4,191,7815,191z"/>
	<path class="st5" d="M7843,341h-28c-5.5,0-10-4.5-10-10l0,0c0-5.5,4.5-10,10-10h28c5.5,0,10,4.5,10,10l0,0
		C7853,336.5,7848.5,341,7843,341z"/>
	<path class="st5" d="M7743,273h17c4.4,0,8,3.6,8,8l0,0c0,4.4-3.6,8-8,8h-17c-4.4,0-8-3.6-8-8l0,0C7735,276.6,7738.6,273,7743,273z"
		/>
	<rect x="7652" y="130" class="st5" width="12" height="222"/>
	<rect x="7394" y="233" class="st5" width="534" height="11"/>
</g>
<g>
	<rect x="9062" y="119" class="st5" width="561" height="245"/>
	<rect x="9079.8" y="135" class="st6" width="523.2" height="213"/>
	<path class="st5" d="M9204,210h-87c-6.6,0-12-5.4-12-12v-22c0-6.6,5.4-12,12-12h87c6.6,0,12,5.4,12,12v22
		C9216,204.6,9210.6,210,9204,210z"/>
	<path class="st5" d="M9114,292h35c6.6,0,12,5.4,12,12v10c0,6.6-5.4,12-12,12h-35c-6.6,0-12-5.4-12-12v-10
		C9102,297.4,9107.4,292,9114,292z"/>
	<path class="st5" d="M9221,214h-11c-6.6,0-12-5.4-12-12v-3c0-6.6,5.4-12,12-12h11c6.6,0,12,5.4,12,12v3
		C9233,208.6,9227.6,214,9221,214z"/>
	<path class="st5" d="M9151.5,218h-19c-4.7,0-8.5-3.8-8.5-8.5v0c0-4.7,3.8-8.5,8.5-8.5h19c4.7,0,8.5,3.8,8.5,8.5v0
		C9160,214.2,9156.2,218,9151.5,218z"/>
	<path class="st5" d="M9173,304h-44c-6.6,0-12-5.4-12-12l0,0c0-6.6,5.4-12,12-12h44c6.6,0,12,5.4,12,12l0,0
		C9185,298.6,9179.6,304,9173,304z"/>
	<path class="st5" d="M9163,294h40c6.6,0,12,5.4,12,12v6c0,6.6-5.4,12-12,12h-40c-6.6,0-12-5.4-12-12v-6
		C9151,299.4,9156.4,294,9163,294z"/>
	<path class="st5" d="M9391,295h-22c-6.6,0-12-5.4-12-12l0,0c0-6.6,5.4-12,12-12h22c6.6,0,12,5.4,12,12l0,0
		C9403,289.6,9397.6,295,9391,295z"/>
	<path class="st5" d="M9319,283h101c6.6,0,12,5.4,12,12v28c0,6.6-5.4,12-12,12h-101c-6.6,0-12-5.4-12-12v-28
		C9307,288.4,9312.4,283,9319,283z"/>
	<path class="st5" d="M9143,255h41c6.6,0,12,5.4,12,12v8c0,6.6-5.4,12-12,12h-41c-6.6,0-12-5.4-12-12v-8
		C9131,260.4,9136.4,255,9143,255z"/>
	<path class="st5" d="M9214,283h-19c-4.4,0-8-3.6-8-8l0,0c0-4.4,3.6-8,8-8h19c4.4,0,8,3.6,8,8l0,0C9222,279.4,9218.4,283,9214,283z"
		/>
	<path class="st5" d="M9177,336h-28c-5.5,0-10-4.5-10-10l0,0c0-5.5,4.5-10,10-10h28c5.5,0,10,4.5,10,10l0,0
		C9187,331.5,9182.5,336,9177,336z"/>
	<path class="st5" d="M9416,296h17c4.4,0,8,3.6,8,8l0,0c0,4.4-3.6,8-8,8h-17c-4.4,0-8-3.6-8-8l0,0C9408,299.6,9411.6,296,9416,296z"
		/>
	<rect x="9336" y="130" class="st5" width="12" height="222"/>
	<rect x="9076" y="233" class="st5" width="534" height="11"/>
</g>
<polygon class="st7" points="931,192 916.6,162.8 884.4,158.1 907.7,135.4 902.2,103.4 931,118.5 959.8,103.4 954.3,135.4 
	977.6,158.1 945.4,162.8 "/>
<polygon class="st7" points="884.4,392.7 870.5,390.4 860.8,400.5 858.7,386.7 846,380.5 858.6,374.2 860.5,360.3 870.4,370.3 
	884.2,367.8 877.8,380.3 "/>
<polygon class="st7" points="1103.5,362.5 1065.8,349.3 1033.7,372.9 1034.5,333 1002.2,309.7 1040.4,298.2 1052.5,260.2 
	1075.3,293 1115.1,292.8 1091,324.6 "/>
<polygon class="st7" points="625.6,533.3 620.7,516 603.6,510.2 618.6,500.2 618.8,482.2 632.9,493.3 650.1,487.9 643.9,504.8 
	654.3,519.5 636.3,518.9 "/>
<polygon class="st7" points="1210.1,229.8 1200.2,195.1 1166.1,183.6 1196,163.5 1196.4,127.4 1224.8,149.6 1259.2,138.9 
	1246.8,172.8 1267.7,202.2 1231.7,200.9 "/>
<polygon class="st7" points="1163.1,88.2 1159.5,75.6 1147.2,71.5 1158,64.2 1158.1,51.1 1168.4,59.2 1180.9,55.3 1176.4,67.6 
	1184,78.2 1170.9,77.7 "/>
<polygon class="st7" points="555,65.3 552.2,55.6 542.6,52.3 551,46.7 551.1,36.5 559.1,42.8 568.8,39.7 565.3,49.3 571.2,57.6 
	561,57.2 "/>
<polygon class="st7" points="956.9,575.8 957.3,555.3 940.6,543.3 960.3,537.3 966.6,517.7 978.3,534.6 998.9,534.5 986.5,550.9 
	992.9,570.4 973.5,563.6 "/>
<polygon class="st7" points="1258.8,506.8 1259.6,469 1228.9,446.9 1265.1,436 1276.6,400 1298.2,431 1336,430.8 1313.1,460.9 
	1325,496.8 1289.3,484.4 "/>
<polygon class="st7" points="1388.7,371 1396.9,356.8 1389.8,342.1 1405.8,345.5 1417.7,334.2 1419.4,350.5 1433.7,358.3 
	1418.8,365 1415.8,381 1404.9,368.9 "/>
<polygon class="st7" points="1216.5,337.2 1221.8,328.1 1217.3,318.6 1227.6,320.8 1235.2,313.5 1236.3,324 1245.6,329 
	1235.9,333.3 1234,343.6 1227,335.8 "/>
<polygon class="st7" points="1759.6,145 1752.2,119.5 1727.4,110.2 1749,96.4 1749.1,70.2 1769.8,87.2 1794.7,80.3 1785.9,104.6 
	1801.2,126.6 1775,124.6 "/>
<polygon class="st7" points="1580,245.5 1594.8,238.8 1597.7,222.7 1608.8,234.8 1624.9,232.6 1616.9,246.8 1624,261.5 1608,258.2 
	1596.2,269.5 1594.4,253.3 "/>
<polygon class="st7" points="1459.8,117.8 1469.4,113.4 1471.2,103.1 1478.3,110.9 1488.7,109.4 1483.5,118.6 1488.1,128 
	1477.8,125.9 1470.2,133.2 1469,122.7 "/>
<polygon class="st7" points="1583.5,461.4 1590.8,487 1615.6,496.4 1594,510.1 1593.8,536.3 1573.2,519.3 1548.2,526.1 
	1557.1,501.8 1541.9,479.8 1568,481.9 "/>
<polygon class="st7" points="1763.3,361.2 1748.4,367.9 1745.4,384 1734.5,371.9 1718.3,374.1 1726.4,359.9 1719.3,345.2 
	1735.3,348.5 1747.1,337.2 1748.9,353.5 "/>
<polygon class="st7" points="1883.3,489.2 1873.7,493.5 1871.8,503.8 1864.7,496.1 1854.3,497.5 1859.5,488.3 1854.9,478.9 
	1865.2,481 1872.8,473.7 1874,484.2 "/>
<polygon class="st7" points="114.5,532.4 121.8,558 146.6,567.4 125,581.1 124.8,607.3 104.2,590.3 79.2,597.1 88.1,572.8 
	72.9,550.8 99,552.9 "/>
<polygon class="st7" points="294.3,432.2 279.4,438.9 276.4,455 265.5,442.9 249.3,445.1 257.4,430.9 250.3,416.2 266.3,419.5 
	278.1,408.2 279.9,424.5 "/>
<polygon class="st7" points="414.3,560.2 404.7,564.5 402.8,574.8 395.7,567.1 385.3,568.5 390.5,559.3 385.9,549.9 396.2,552 
	403.8,544.7 405,555.2 "/>
<polygon class="st7" points="2862.7,438.8 2888.4,471.1 2929.6,468.2 2906.8,502.7 2922.2,541 2882.4,529.9 2850.8,556.5 
	2849,515.2 2814,493.3 2852.7,478.8 "/>
<polygon class="st7" points="2591.3,442.1 2580.8,478 2604.3,507 2567,508.1 2546.7,539.5 2534.1,504.3 2498,494.7 2527.6,471.8 
	2525.6,434.5 2556.4,455.6 "/>
<polygon class="st7" points="2753.6,160.1 2732,192.8 2746.7,229.1 2708.9,218.7 2679,243.9 2677.2,204.8 2644,184.1 2680.6,170.3 
	2690.1,132.3 2714.5,162.9 "/>
<polygon class="st7" points="2535.3,131.4 2520.9,139 2518.9,155.2 2507.2,143.8 2491.2,147 2498.4,132.3 2490.5,118.1 
	2506.6,120.4 2517.8,108.4 2520.5,124.6 "/>
<polygon class="st7" points="2550.8,329 2541.1,334.1 2539.8,344.9 2532,337.3 2521.3,339.4 2526.1,329.6 2520.8,320.1 
	2531.6,321.7 2539,313.7 2540.9,324.4 "/>
<polygon class="st7" points="2211.4,94.4 2222.9,70.4 2210.7,46.9 2236,51 2253.5,31.6 2257.6,58.1 2280.8,69.6 2258,81.8 
	2254.7,108.4 2236.6,89.4 "/>
<polygon class="st7" points="2010.5,49.5 2026.1,54.4 2039,44.4 2039.1,60.7 2052.7,69.9 2037.2,75.1 2032.7,90.8 2023,77.6 
	2006.6,78.2 2016.1,64.9 "/>
<polygon class="st7" points="2154.9,457.7 2135.8,476.1 2139.2,502.5 2116.9,489.8 2093.7,502 2099,475.8 2081.3,457 2106.9,453.4 
	2119.1,429.6 2129.6,453.6 "/>
<polygon class="st7" points="2327.9,569.2 2315,559.2 2299.4,564.2 2304.9,548.8 2295.4,535.5 2311.7,536 2321.4,522.8 2326,538.5 
	2341.5,543.6 2328,552.8 "/>
<polygon class="st7" points="67.6,248.4 89.1,263.9 114.4,255.8 106,280 122.2,300.7 95.4,300.2 80.1,321 72,296.5 46.4,288.7 
	68.1,274.1 "/>
<polygon class="st7" points="146.1,58.2 138.5,72.7 146.3,87.1 130.1,84.5 118.8,96.2 116.3,80.1 101.6,72.9 116.2,65.6 118.5,49.4 
	130,61 "/>
<polygon class="st7" points="3096.4,149.7 3098.3,113.7 3069.7,91.7 3104.5,82.4 3116.6,48.3 3136.2,78.6 3172.3,79.6 3149.6,107.6 
	3159.8,142.2 3126.1,129.3 "/>
<polygon class="st7" points="3052.7,427.5 3065.7,392 3043.8,361.2 3081.6,362.6 3104.1,332.2 3114.5,368.6 3150.4,380.6 
	3119,401.7 3118.6,439.5 3088.8,416.2 "/>
<polygon class="st7" points="3219.6,341.1 3231.9,330.4 3230.1,314.1 3244.1,322.5 3259,315.7 3255.3,331.7 3266.3,343.7 
	3250.1,345.1 3242,359.4 3235.6,344.3 "/>
<polygon class="st7" points="3067.7,253.4 3075.6,246.4 3074.4,236 3083.5,241.4 3093,237 3090.7,247.3 3097.8,255 3087.3,256 
	3082.1,265.1 3078,255.4 "/>
<polygon class="st7" points="3543.3,302.3 3537.6,328.2 3555,348.3 3529.5,350.1 3516.9,373.1 3506.8,348.3 3481.6,342.4 
	3500.9,325.3 3498,298.7 3520,312.9 "/>
<polygon class="st7" points="2906.7,96.4 2880.9,90 2860.4,106.9 2859.2,81.3 2836.5,68.1 2861.6,58.7 2868.1,33.7 2884.7,53.4 
	2911.4,51.1 2896.6,72.8 "/>
<polygon class="st7" points="2917.3,343.2 2918.9,326.9 2906.4,316.4 2922.3,312.9 2928.5,297.7 2936.8,311.8 2953.1,313 
	2942.2,325.2 2946.2,341.1 2931.2,334.6 "/>
<polygon class="st7" points="3947.5,481.2 3946.5,507.8 3967.1,524.5 3942.2,530.7 3933.9,555.6 3919.6,532.9 3893.8,531.6 
	3909.8,511.3 3902.2,485.6 3926.4,495.8 "/>
<polygon class="st7" points="4149.7,442.4 4133.4,444.1 4125.6,458.5 4119,443.5 4102.9,440.5 4115,429.6 4112.9,413.4 
	4127.1,421.6 4141.8,414.6 4138.4,430.5 "/>
<polygon class="st7" points="4380.7,447.9 4370.7,423.3 4345,416.6 4365.1,400.6 4362.5,374.5 4384.8,389.3 4408.9,379.9 
	4402.7,405 4420.1,425.2 4393.9,426 "/>
<polygon class="st7" points="4212.5,566.5 4226.6,558.3 4227.8,542 4240,552.9 4255.9,549 4249.3,564 4257.9,577.9 4241.6,576.2 
	4231.1,588.7 4227.6,572.7 "/>
<polygon class="st7" points="4084,18.1 4071.4,53.8 4093.5,84.4 4055.7,83.4 4033.5,113.9 4022.8,77.6 3986.8,65.9 4018,44.5 
	4018.1,6.7 4048,29.7 "/>
<polygon class="st7" points="3594.5,147.6 3600,121.6 3582.5,101.7 3608,99.6 3620.4,76.5 3630.7,101.2 3655.9,106.9 3636.7,124.2 
	3639.9,150.8 3617.8,136.8 "/>
<polygon class="st7" points="3459.7,133.4 3467.6,126.4 3466.4,116 3475.5,121.4 3485,117 3482.7,127.3 3489.8,135 3479.3,136 
	3474.1,145.1 3470,135.4 "/>
<polygon class="st7" points="3309.3,223.2 3310.9,206.9 3298.4,196.4 3314.3,192.9 3320.5,177.7 3328.8,191.8 3345.1,193 
	3334.2,205.2 3338.2,221.1 3323.2,214.6 "/>
<polygon class="st7" points="3410.7,465.4 3418.6,458.4 3417.4,448 3426.5,453.4 3436,449 3433.7,459.3 3440.8,467 3430.3,468 
	3425.1,477.1 3421,467.4 "/>
<polygon class="st7" points="3260.3,555.2 3261.9,538.9 3249.4,528.4 3265.3,524.9 3271.5,509.7 3279.8,523.8 3296.1,525 
	3285.2,537.2 3289.2,553.1 3274.2,546.6 "/>
<polygon class="st7" points="4675,220 4660.6,190.8 4628.4,186.1 4651.7,163.4 4646.2,131.4 4675,146.5 4703.8,131.4 4698.3,163.4 
	4721.6,186.1 4689.4,190.8 "/>
<polygon class="st7" points="4628.4,420.7 4614.5,418.4 4604.8,428.5 4602.7,414.7 4590,408.5 4602.6,402.2 4604.5,388.3 
	4614.4,398.3 4628.2,395.8 4621.8,408.3 "/>
<polygon class="st7" points="4847.5,390.5 4809.8,377.3 4777.7,400.9 4778.5,361 4746.2,337.7 4784.4,326.2 4796.5,288.2 
	4819.3,321 4859.1,320.8 4835,352.6 "/>
<polygon class="st7" points="4369.6,561.3 4364.7,544 4347.6,538.2 4362.6,528.2 4362.8,510.2 4376.9,521.3 4394.1,515.9 
	4387.9,532.8 4398.3,547.5 4380.3,546.9 "/>
<polygon class="st7" points="4954.1,257.8 4944.2,223.1 4910.1,211.6 4940,191.5 4940.4,155.4 4968.8,177.6 5003.2,166.9 
	4990.8,200.8 5011.7,230.2 4975.7,228.9 "/>
<polygon class="st7" points="4907.1,116.2 4903.5,103.6 4891.2,99.5 4902,92.2 4902.1,79.1 4912.4,87.2 4924.9,83.3 4920.4,95.6 
	4928,106.2 4914.9,105.7 "/>
<polygon class="st7" points="4700.9,603.8 4701.3,583.3 4684.6,571.3 4704.3,565.3 4710.6,545.7 4722.3,562.6 4742.9,562.5 
	4730.5,578.9 4736.9,598.4 4717.5,591.6 "/>
<polygon class="st7" points="5002.8,534.8 5003.6,497 4972.9,474.9 5009.1,464 5020.6,428 5042.2,459 5080,458.8 5057.1,488.9 
	5069,524.8 5033.3,512.4 "/>
<polygon class="st7" points="5132.7,399 5140.9,384.8 5133.8,370.1 5149.8,373.5 5161.7,362.2 5163.4,378.5 5177.7,386.3 
	5162.8,393 5159.8,409 5148.9,396.9 "/>
<polygon class="st7" points="4960.5,365.2 4965.8,356.1 4961.3,346.6 4971.6,348.8 4979.2,341.5 4980.3,352 4989.6,357 
	4979.9,361.3 4978,371.6 4971,363.8 "/>
<polygon class="st7" points="5503.6,173 5496.2,147.5 5471.4,138.2 5493,124.4 5493.1,98.2 5513.8,115.2 5538.7,108.3 5529.9,132.6 
	5545.2,154.6 5519,152.6 "/>
<polygon class="st7" points="5324,273.5 5338.8,266.8 5341.7,250.7 5352.8,262.8 5368.9,260.6 5360.9,274.8 5368,289.5 5352,286.2 
	5340.2,297.5 5338.4,281.3 "/>
<polygon class="st7" points="5203.8,145.8 5213.4,141.4 5215.2,131.1 5222.3,138.9 5232.7,137.4 5227.5,146.6 5232.1,156 
	5221.8,153.9 5214.2,161.2 5213,150.7 "/>
<polygon class="st7" points="5507.3,389.2 5492.4,395.9 5489.4,412 5478.5,399.9 5462.3,402.1 5470.4,387.9 5463.3,373.2 
	5479.3,376.5 5491.1,365.2 5492.9,381.5 "/>
<polygon class="st7" points="5627.3,517.2 5617.7,521.5 5615.8,531.8 5608.7,524.1 5598.3,525.5 5603.5,516.3 5598.9,506.9 
	5609.2,509 5616.8,501.7 5618,512.2 "/>
<polygon class="st7" points="6279.3,159.4 6264.9,167 6262.9,183.2 6251.2,171.8 6235.2,175 6242.4,160.3 6234.5,146.1 
	6250.6,148.4 6261.8,136.4 6264.5,152.6 "/>
<polygon class="st7" points="5955.4,122.4 5966.9,98.4 5954.7,74.9 5980,79 5997.5,59.6 6001.6,86.1 6024.8,97.6 6002,109.8 
	5998.7,136.4 5980.6,117.4 "/>
<polygon class="st7" points="5754.5,77.5 5770.1,82.4 5783,72.4 5783.1,88.7 5796.7,97.9 5781.2,103.1 5776.7,118.8 5767,105.6 
	5750.6,106.2 5760.1,92.9 "/>
<polygon class="st7" points="5898.9,485.7 5879.8,504.1 5883.2,530.5 5860.9,517.8 5837.7,530 5843,503.8 5825.3,485 5850.9,481.4 
	5863.1,457.6 5873.6,481.6 "/>
<polygon class="st7" points="6071.9,597.2 6059,587.2 6043.4,592.2 6048.9,576.8 6039.4,563.5 6055.7,564 6065.4,550.8 6070,566.5 
	6085.5,571.6 6072,580.8 "/>
<polygon class="st7" points="8180,188 8165.6,158.8 8133.4,154.1 8156.7,131.4 8151.2,99.4 8180,114.5 8208.8,99.4 8203.3,131.4 
	8226.6,154.1 8194.4,158.8 "/>
<polygon class="st7" points="7874.6,529.3 7869.7,512 7852.6,506.2 7867.6,496.2 7867.8,478.2 7881.9,489.3 7899.1,483.9 
	7892.9,500.8 7903.3,515.5 7885.3,514.9 "/>
<polygon class="st7" points="8459.1,225.8 8449.2,191.1 8415.1,179.6 8445,159.5 8445.4,123.4 8473.8,145.6 8508.2,134.9 
	8495.8,168.8 8516.7,198.2 8480.7,196.9 "/>
<polygon class="st7" points="8412.1,84.2 8408.5,71.6 8396.2,67.5 8407,60.2 8407.1,47.1 8417.4,55.2 8429.9,51.3 8425.4,63.6 
	8433,74.2 8419.9,73.7 "/>
<polygon class="st7" points="8507.8,502.8 8508.6,465 8477.9,442.9 8514.1,432 8525.6,396 8547.2,427 8585,426.8 8562.1,456.9 
	8574,492.8 8538.3,480.4 "/>
<polygon class="st7" points="8637.7,367 8645.9,352.8 8638.8,338.1 8654.8,341.5 8666.7,330.2 8668.4,346.5 8682.7,354.3 
	8667.8,361 8664.8,377 8653.9,364.9 "/>
<polygon class="st7" points="8465.5,333.2 8470.8,324.1 8466.3,314.6 8476.6,316.8 8484.2,309.5 8485.3,320 8494.6,325 
	8484.9,329.3 8483,339.6 8476,331.8 "/>
<polygon class="st7" points="9008.6,141 9001.2,115.5 8976.4,106.2 8998,92.4 8998.1,66.2 9018.8,83.2 9043.7,76.3 9034.9,100.6 
	9050.2,122.6 9024,120.6 "/>
<polygon class="st7" points="8829,241.5 8843.8,234.8 8846.7,218.7 8857.8,230.8 8873.9,228.6 8865.9,242.8 8873,257.5 8857,254.2 
	8845.2,265.5 8843.4,249.3 "/>
<polygon class="st7" points="8708.8,113.8 8718.4,109.4 8720.2,99.1 8727.3,106.9 8737.7,105.4 8732.5,114.6 8737.1,124 
	8726.8,121.9 8719.2,129.2 8718,118.7 "/>
<polygon class="st7" points="8832.5,457.4 8839.8,483 8864.6,492.4 8843,506.1 8842.8,532.3 8822.2,515.3 8797.2,522.1 
	8806.1,497.8 8790.9,475.8 8817,477.9 "/>
<polygon class="st7" points="9012.3,357.2 8997.4,363.9 8994.4,380 8983.5,367.9 8967.3,370.1 8975.4,355.9 8968.3,341.2 
	8984.3,344.5 8996.1,333.2 8997.9,349.5 "/>
<polygon class="st7" points="9132.3,485.2 9122.7,489.5 9120.8,499.8 9113.7,492.1 9103.3,493.5 9108.5,484.3 9103.9,474.9 
	9114.2,477 9121.8,469.7 9123,480.2 "/>
<polygon class="st7" points="9784.3,127.4 9769.9,135 9767.9,151.2 9756.2,139.8 9740.2,143 9747.4,128.3 9739.5,114.1 
	9755.6,116.4 9766.8,104.4 9769.5,120.6 "/>
<polygon class="st7" points="9460.4,90.4 9471.9,66.4 9459.7,42.9 9485,47 9502.5,27.6 9506.6,54.1 9529.8,65.6 9507,77.8 
	9503.7,104.4 9485.6,85.4 "/>
<polygon class="st7" points="9259.5,45.5 9275.1,50.4 9288,40.4 9288.1,56.7 9301.7,65.9 9286.2,71.1 9281.7,86.8 9272,73.6 
	9255.6,74.2 9265.1,60.9 "/>
<polygon class="st7" points="9403.9,453.7 9384.8,472.1 9388.2,498.5 9365.9,485.8 9342.7,498 9348,471.8 9330.3,453 9355.9,449.4 
	9368.1,425.6 9378.6,449.6 "/>
<polygon class="st7" points="9576.9,565.2 9564,555.2 9548.4,560.2 9553.9,544.8 9544.4,531.5 9560.7,532 9570.4,518.8 9575,534.5 
	9590.5,539.6 9577,548.8 "/>
<polygon class="st7" points="6844.2,177.3 6818.4,145 6777.2,148 6799.9,113.5 6784.3,75.2 6824.1,86.1 6855.7,59.5 6857.6,100.8 
	6892.7,122.6 6854.1,137.2 "/>
<polygon class="st7" points="7115.6,173 7126,137.1 7102.3,108.2 7139.7,107 7159.9,75.5 7172.5,110.7 7208.7,120.2 7179.2,143.1 
	7181.3,180.4 7150.4,159.4 "/>
<polygon class="st7" points="6954.2,455.5 6975.7,422.8 6960.9,386.5 6998.7,396.8 7028.6,371.5 7030.5,410.6 7063.8,431.2 
	7027.1,445.1 7017.8,483.2 6993.3,452.6 "/>
<polygon class="st7" points="7172.5,483.5 7187,475.9 7188.9,459.6 7200.6,471 7216.6,467.8 7209.5,482.5 7217.5,496.7 
	7201.3,494.4 7190.2,506.4 7187.4,490.3 "/>
<polygon class="st7" points="7156.5,286 7166.1,280.9 7167.4,270.1 7175.2,277.6 7185.9,275.5 7181.1,285.3 7186.4,294.8 
	7175.6,293.2 7168.3,301.3 7166.4,290.5 "/>
<polygon class="st7" points="6611.4,467.1 6609.7,503.1 6638.4,525 6603.5,534.5 6591.6,568.5 6571.8,538.3 6535.8,537.5 
	6558.4,509.4 6548,474.8 6581.8,487.6 "/>
<polygon class="st7" points="6654.2,189.1 6641.3,224.7 6663.3,255.4 6625.5,254.2 6603.1,284.6 6592.6,248.3 6556.7,236.4 
	6588,215.2 6588.3,177.3 6618.1,200.5 "/>
<polygon class="st7" points="6487.6,276.1 6475.3,286.9 6477.2,303.1 6463.2,294.8 6448.3,301.6 6451.9,285.7 6440.8,273.7 
	6457.1,272.2 6465.1,257.9 6471.6,272.9 "/>
<polygon class="st7" points="6639.8,363.4 6631.9,370.3 6633.1,380.7 6624.1,375.4 6614.5,379.8 6616.8,369.5 6609.7,361.8 
	6620.2,360.8 6625.3,351.6 6629.5,361.3 "/>
<polygon class="st7" points="6801.4,519.8 6827.2,526 6847.6,509.1 6848.9,534.7 6871.6,547.8 6846.6,557.4 6840.2,582.4 
	6823.4,562.7 6796.8,565.1 6811.5,543.3 "/>
<polygon class="st7" points="6789.9,273 6788.4,289.3 6800.9,299.8 6784.9,303.3 6778.8,318.5 6770.5,304.4 6754.2,303.3 
	6765,291.1 6761,275.2 6776,281.7 "/>
<polygon class="st7" points="6446.2,62.2 6444.7,78.4 6457.2,88.9 6441.2,92.5 6435.1,107.6 6426.8,93.6 6410.5,92.5 6421.3,80.2 
	6417.3,64.3 6432.3,70.8 "/>
<polygon class="st7" points="7681.5,94.5 7644.9,87.1 7618,113.1 7613.7,76 7580.7,58.5 7614.6,42.9 7621,6.1 7646.4,33.6 
	7683.4,28.3 7665.1,60.9 "/>
<polygon class="st7" points="7790.7,44.2 7784.8,35.1 7773.9,34.7 7780.8,26.3 7777.8,15.8 7787.9,19.8 7796.9,13.7 7796.3,24.5 
	7804.9,31.2 7794.4,34 "/>
<polygon class="st7" points="7626,459 7655,482.6 7690.9,472.1 7677.4,507 7698.5,537.8 7661.2,535.8 7638.3,565.4 7628.7,529.3 
	7593.5,516.7 7624.9,496.4 "/>
<polygon class="st7" points="7506,452.6 7506.9,463.5 7516.4,468.9 7506.4,473.1 7504.2,483.8 7497.1,475.5 7486.2,476.8 
	7491.8,467.4 7487.3,457.5 7498,460 "/>
<polygon class="st7" points="9926.6,212.1 9923.5,228.1 9934.9,239.8 9918.6,241.8 9911,256.2 9904.2,241.4 9888.1,238.6 
	9900.1,227.5 9897.7,211.3 9912,219.3 "/>
<polygon class="st7" points="9694.1,440.7 9682.8,416.6 9656.8,411.4 9675.9,394.3 9671.8,368.4 9695,381.9 9718.5,371.1 
	9713.6,396.5 9732.2,415.8 9706.1,418 "/>
<polygon class="st7" points="10035.5,139.9 10067,119 10067.6,81.2 10097.2,104.6 10133.4,93.5 10120.2,129 10142,159.9 
	10104.2,158.3 10081.5,188.6 10071.3,152.2 "/>
<polygon class="st7" points="10221.2,169 10237.5,167.7 10245.6,153.5 10251.9,168.5 10267.9,171.9 10255.5,182.5 10257.3,198.8 
	10243.3,190.3 10228.4,197 10232.2,181.1 "/>
<polygon class="st7" points="10258.1,380.6 10241.3,401.2 10247.8,426.9 10224.2,417 10202.5,431.9 10204.7,405.2 10184.9,388.6 
	10209.9,382 10219.3,356.9 10232.5,379.5 "/>
</svg>
