<?xml version="1.0" encoding="utf-8"?>
<!-- Generator: Adobe Illustrator 22.1.0, SVG Export Plug-In . SVG Version: 6.00 Build 0)  -->
<svg version="1.1" id="Layer_1" xmlns="http://www.w3.org/2000/svg" xmlns:xlink="http://www.w3.org/1999/xlink" x="0px" y="0px"
	 viewBox="0 0 176.3 157.6" style="enable-background:new 0 0 176.3 157.6;" xml:space="preserve">
<style type="text/css">
	.st0{fill:#8C6239;}
	.st1{fill:#FFCF57;}
	.st2{fill:none;stroke:#000000;stroke-miterlimit:10;}
</style>
<ellipse class="st0" cx="88.6" cy="115.1" rx="78" ry="42.5"/>
<path class="st0" d="M70,54.8c0,0,4.1-57.7-16.9-54.7s-60,26-52,43s41.3,27.6,41.3,27.6L70,54.8z"/>
<path class="st0" d="M106.3,54.8c0,0-4.1-57.7,16.9-54.7s60,26,52,43s-41.3,27.6-41.3,27.6L106.3,54.8z"/>
<path class="st1" d="M31.6,47.4c0,0-22.1-6.8-10.1-17.8s26-17,29-15s6.7,15.9,6.7,15.9L31.6,47.4z"/>
<ellipse class="st0" cx="88.6" cy="85.6" rx="73" ry="61"/>
<ellipse cx="87.6" cy="98.6" rx="12.5" ry="2.5"/>
<path d="M119.1,74.1c3.5-3.5,3-5,9-4s8,2,8,6s-3,7-6,7s-8-2-9-3S118.1,75.1,119.1,74.1z"/>
<path d="M58.8,74.1c-3.5-3.5-3-5-9-4s-8,2-8,6s3,7,6,7s8-2,9-3S59.8,75.1,58.8,74.1z"/>
<path class="st1" d="M144.6,49.4c0,0,22.1-6.8,10.1-17.8s-26-17-29-15S119,32.5,119,32.5L144.6,49.4z"/>
<polyline class="st2" points="87.6,98.6 87.6,112.6 74.6,120.6 "/>
<line class="st2" x1="101.6" y1="120.6" x2="87.6" y2="112.6"/>
<path class="st2" d="M49.6,104.6"/>
<polygon class="st1" points="47.6,104.6 48.6,103.6 48.6,104.6 "/>
<polygon class="st1" points="56.4,116 57.8,116.3 56.9,116.8 "/>
<polygon class="st1" points="63.8,104.4 64.3,105.8 63.4,105.4 "/>
<polygon class="st1" points="106.8,103.4 107.3,104.8 106.4,104.4 "/>
<polygon class="st1" points="122.7,101.7 121.5,102.5 121.7,101.5 "/>
<polygon class="st1" points="118.5,113.7 117.7,112.5 118.6,112.7 "/>
</svg>
