<?xml version="1.0" encoding="utf-8"?>
<!-- Generator: Adobe Illustrator 22.1.0, SVG Export Plug-In . SVG Version: 6.00 Build 0)  -->
<svg version="1.1" xmlns="http://www.w3.org/2000/svg" xmlns:xlink="http://www.w3.org/1999/xlink" x="0px" y="0px"
	 viewBox="0 0 425 364.6" style="enable-background:new 0 0 425 364.6;" xml:space="preserve">
<style type="text/css">
	.st0{fill:#FFE3E6;}
	.st1{fill:#AF4655;}
	.st2{fill:#FFABB1;}
</style>
<g id="Layer_1">
	<path class="st0" d="M393.8,350h12c0,0-1-117,4-141s14.1-96.5,14.1-96.5L339.8,176c0,0,26-12,35-10s17,0,19,20S393.8,350,393.8,350
		z"/>
	<path class="st1" d="M0.9,339.1l1.8,6.9c0,0,190,33,231,11s61-50,66-83s14-65,35-105s-119,162-119,162L0.9,339.1z"/>
	<path class="st0" d="M366.8,0c0,0-58,66-123,230c0,0-16,63-71,50s-69,10-69,10l112,32l89-133l44-90L366.8,0z"/>
	<path class="st2" d="M1.8,341c0,0-6-11,4-15s120-49,120-49s-5,2-4,4s40,24,73,21s45-11,63-66s81-207,109-235c0,0,39,28,56,81
		c0,0,5,21,0,34s-42,27-78,60s-46,85-52,105s-25,67-72,74S41.8,351,1.8,341z"/>
	<polygon class="st1" points="393.8,350 393.8,358 405.8,358 405.8,348.9 	"/>
</g>
<g id="Layer_2">
</g>
</svg>
