<?xml version="1.0" encoding="utf-8"?>
<!-- Generator: Adobe Illustrator 22.1.0, SVG Export Plug-In . SVG Version: 6.00 Build 0)  -->
<svg version="1.1" id="Layer_1" xmlns="http://www.w3.org/2000/svg" xmlns:xlink="http://www.w3.org/1999/xlink" x="0px" y="0px"
	 viewBox="0 0 638.4 435.7" style="enable-background:new 0 0 638.4 435.7;" xml:space="preserve">
<style type="text/css">
	.st0{fill:#FBB03B;}
	.st1{fill:none;stroke:#895C21;stroke-width:20;stroke-miterlimit:10;}
	.st2{fill:#A57132;}
	.st3{fill:none;}
	.st4{fill:#231F20;}
	.st5{fill:#704819;}
</style>
<circle class="st0" cx="304.1" cy="211.4" r="201.5"/>
<path class="st1" d="M530.1,391.4c0,0,42-367-226-381c-250.7-13.1-222,381-222,381"/>
<path class="st1" d="M28.1,378.4c0,0,19-382,276-368c304.8,16.6,295,368,295,368"/>
<path class="st1" d="M520.1,426.4c0,0-14-387-225.4-409.7C118.1,53.4,55.1,426.4,55.1,426.4"/>
<line class="st1" x1="174.1" y1="167.4" x2="279.7" y2="20.7"/>
<line class="st1" x1="239.1" y1="167.4" x2="260.2" y2="28.6"/>
<line class="st1" x1="287.1" y1="159.4" x2="313.6" y2="20.7"/>
<line class="st1" x1="339.1" y1="167.4" x2="339.1" y2="32.4"/>
<line class="st1" x1="395.1" y1="163.4" x2="291.6" y2="17.4"/>
<line class="st1" x1="415.1" y1="163.4" x2="392.1" y2="48.4"/>
<line class="st1" x1="273.1" y1="169.4" x2="294.6" y2="9.9"/>
<line class="st1" x1="311.1" y1="169.4" x2="324.4" y2="22.6"/>
<line class="st1" x1="433.1" y1="169.4" x2="421.2" y2="48.4"/>
<line class="st1" x1="208.1" y1="173.4" x2="227.1" y2="40.4"/>
<line class="st1" x1="176.2" y1="164.4" x2="193.1" y2="48.4"/>
<line class="st1" x1="260.1" y1="169.4" x2="270" y2="24.2"/>
<line class="st1" x1="388.1" y1="169.4" x2="379.1" y2="32.4"/>
<path class="st1" d="M102.1,426.4c0,0-41.1-344,137.9-386"/>
<path class="st1" d="M249.7,20.7c0,0-180.6,102.7-200.6,339.7"/>
<path class="st1" d="M566.1,412.4c0,0,34-362-211-380l9,135"/>
<line class="st1" x1="8.1" y1="284.4" x2="174.1" y2="57.4"/>
<line class="st1" x1="631.1" y1="318.4" x2="392.1" y2="61.2"/>
<path class="st1" d="M442.1,90.4c0,0,74,150,63,336"/>
<path class="st1" d="M124.1,402.4c0,0-21.8-273,87.1-354"/>
<line class="st1" x1="167.1" y1="183.4" x2="169" y2="82"/>
<line class="st1" x1="37.1" y1="159.4" x2="184.6" y2="57.4"/>
<line class="st1" x1="605.1" y1="233.4" x2="461.4" y2="82"/>
<path class="st1" d="M542.1,434.4c0,0-43-326.4-100-373.2"/>
<path class="st1" d="M142.1,391.4c0,0,31.4-255,42.2-282.5s17-36.3,26.9-44.9"/>
<path class="st1" d="M469.6,105.9c0,0,2.6-58.3-293-41.9"/>
<path class="st1" d="M482.1,391.4c0,0-17.9-250.8-54.9-307.9"/>
<polygon class="st2" points="308.1,237.4 288.1,306.4 333.1,306.4 "/>
<g>
	<g>
		<g>
			<g>
				<g>
					<g>
						<path class="st3" d="M191.8,333.4l1.2,0.9l0.9,0.7l1.7,1.3c1.1,0.8,2.2,1.6,3.2,2.4c2.1,1.5,4.3,3,6.4,4.4
							c4.3,2.8,8.6,5.4,13,7.9c8.8,4.9,18,9.3,27.5,13c9.5,3.7,19.4,6.7,29.6,8.9c5.1,1.1,10.3,2,15.5,2.7l7.9,0.8l8,0.4l1.8-60
							c-13.6-0.4-27.5-3.5-41-8.7c-6.8-2.6-13.4-5.8-19.9-9.4c-3.2-1.8-6.4-3.7-9.4-5.7c-1.5-1-3-2-4.4-3c-0.7-0.5-1.4-1-2-1.5
							l-1.4-1.1L191.8,333.4z"/>
					</g>
					<g>
						<path class="st4" d="M213.4,317.1c7.7,5.6,15.9,10.5,24.4,14.8l3.6-7.1c-8.1-4.1-16-8.8-23.3-14.1L213.4,317.1z"/>
					</g>
					<g>
						<path class="st4" d="M248.5,337c1.1,0.5,2.2,1,3.3,1.4l3.3,1.3c2.2,0.9,4.5,1.7,6.7,2.4l2.6-7.6c-2.1-0.8-4.3-1.5-6.4-2.3
							l-3.2-1.2c-1.1-0.4-2.1-0.9-3.1-1.3L248.5,337z"/>
					</g>
					<g>
						<path class="st4" d="M273.1,345.6c9.2,2.5,18.6,4.1,28.2,4.8l0.6-8c-9-0.7-17.9-2.2-26.7-4.6L273.1,345.6z"/>
					</g>
				</g>
			</g>
			<g>
				<g>
					<g>
						<path class="st3" d="M306.6,376.7c10.7,0.3,21.4-0.5,32.1-2.2c10.6-1.9,21-4.9,31-8.7c19.9-8,37.7-19.5,53-32.8l-39.4-45.2
							c-11.1,9.6-23,17.1-35.5,22.2c-6.3,2.4-12.7,4.2-19.3,5.4c-6.6,1.1-13.3,1.5-20.1,1.4L306.6,376.7z"/>
					</g>
					<g>
						<path class="st4" d="M313.4,350.7c9.6-0.2,19.2-1.2,28.5-3.5l-1.8-7.8c-8.8,2.1-17.8,3.1-26.8,3.2L313.4,350.7z"/>
					</g>
					<g>
						<path class="st4" d="M353.4,344l6.8-2.4c2.2-0.9,4.4-1.9,6.6-2.9l-3.3-7.3c-2.1,0.9-4.1,1.8-6.2,2.7l-6.4,2.3L353.4,344z"/>
					</g>
					<g>
						<path class="st4" d="M377.5,333.4c8.3-4.8,16.3-10,23.5-16.2l-5.1-6.2c-7,5.9-14.6,10.8-22.4,15.4L377.5,333.4z"/>
					</g>
				</g>
			</g>
		</g>
	</g>
</g>
<circle class="st5" cx="241.1" cy="230.4" r="24"/>
<circle class="st5" cx="380.1" cy="233.4" r="24"/>
</svg>
