<?xml version="1.0" encoding="utf-8"?>
<!-- Generator: Adobe Illustrator 22.1.0, SVG Export Plug-In . SVG Version: 6.00 Build 0)  -->
<svg version="1.1" id="Layer_1" xmlns="http://www.w3.org/2000/svg" xmlns:xlink="http://www.w3.org/1999/xlink" x="0px" y="0px"
	 viewBox="0 0 917.4 2791.7" style="enable-background:new 0 0 917.4 2791.7;" xml:space="preserve">
<style type="text/css">
	.st0{fill:#DDBB97;}
	.st1{fill:#CCA47D;}
	.st2{fill:none;stroke:#000000;stroke-width:4;stroke-miterlimit:10;}
	.st3{display:none;}
	.st4{display:inline;fill:#C9A06F;}
	.st5{display:inline;fill:#B58D61;}
	.st6{display:inline;fill:none;stroke:#000000;stroke-width:4;stroke-miterlimit:10;}
	.st7{display:inline;fill:#B5874B;}
	.st8{display:inline;fill:#A57A46;}
	.st9{display:inline;fill:#7C4D23;}
	.st10{display:inline;fill:#663510;}
	.st11{display:none;fill:#C9A06F;}
	.st12{display:none;fill:#B5874B;}
	.st13{display:none;fill:#7C4D23;}
	.st14{fill:#FFAEF5;}
	.st15{fill:#F995F9;}
	.st16{fill:#D969E2;}
	.st17{fill:#B551BF;}
	.st18{fill:#F2D17E;}
	.st19{fill:#755732;}
	.st20{display:inline;fill:#512C13;}
	.st21{display:inline;}
</style>
<g id="skin">
	<g id="face">
		<polygon class="st0" points="448.1,798.1 432.6,934.1 536.1,927.6 554.6,802.1 		"/>
		<path class="st1" d="M448.6,783.1l-5.2,56c41,9.8,76.4,10.9,105.4,2l11.2-77L448.6,783.1z"/>
		<path class="st0" d="M798.6,332.3c0,0,20.6,72.3,10.1,144.8c0,0,42.4-15.5,80.9-4c0,0,5,49-24,70l-52.5-2.5c0,0-4.5,179-81.5,223
			s-173,88-337,40s-131-162-131-162l156.1-314l264.2-50.7L798.6,332.3z"/>
		<path class="st2" d="M806.1,615.1c0,0-32.2,9.4-104,23c-73,13.8-157.5,11.6-192-6"/>
	</g>
	<g id="face_1_" class="st3">
		<polygon class="st4" points="448.1,798.1 432.6,934.1 536.1,927.6 554.6,802.1 		"/>
		<path class="st5" d="M448.6,783.1l-5.2,56c41,9.8,76.4,10.9,105.4,2l11.2-77L448.6,783.1z"/>
		<path class="st4" d="M798.6,332.3c0,0,20.6,72.3,10.1,144.8c0,0,42.4-15.5,80.9-4c0,0,5,49-24,70l-52.5-2.5c0,0-4.5,179-81.5,223
			s-173,88-337,40s-131-162-131-162l156.1-314l264.2-50.7L798.6,332.3z"/>
		<path class="st6" d="M806.1,615.1c0,0-32.2,9.4-104,23c-73,13.8-157.5,11.6-192-6"/>
	</g>
	<g id="face_2_" class="st3">
		<polygon class="st7" points="448.1,798.1 432.6,934.1 536.1,927.6 554.6,802.1 		"/>
		<path class="st8" d="M448.6,783.1l-5.2,56c41,9.8,76.4,10.9,105.4,2l11.2-77L448.6,783.1z"/>
		<path class="st7" d="M798.6,332.3c0,0,20.6,72.3,10.1,144.8c0,0,42.4-15.5,80.9-4c0,0,5,49-24,70l-52.5-2.5c0,0-4.5,179-81.5,223
			s-173,88-337,40s-131-162-131-162l156.1-314l264.2-50.7L798.6,332.3z"/>
		<path class="st6" d="M806.1,615.1c0,0-32.2,9.4-104,23c-73,13.8-157.5,11.6-192-6"/>
	</g>
	<g id="face_3_" class="st3">
		<polygon class="st9" points="448.1,798.1 432.6,934.1 536.1,927.6 554.6,802.1 		"/>
		<path class="st10" d="M448.6,783.1l-5.2,56c41,9.8,76.4,10.9,105.4,2l11.2-77L448.6,783.1z"/>
		<path class="st9" d="M798.6,332.3c0,0,20.6,72.3,10.1,144.8c0,0,42.4-15.5,80.9-4c0,0,5,49-24,70l-52.5-2.5c0,0-4.5,179-81.5,223
			s-173,88-337,40s-131-162-131-162l156.1-314l264.2-50.7L798.6,332.3z"/>
		<path class="st6" d="M806.1,615.1c0,0-32.2,9.4-104,23c-73,13.8-157.5,11.6-192-6"/>
	</g>
</g>
<g id="eyes">
	<path d="M678.3,435.6c0,0-24-4.5-29.5,44s4,44,7.5,41.5s25-33,27-54S680.8,435.7,678.3,435.6z"/>
</g>
<g id="ear">
	<path class="st0" d="M233.1,534.6c0,0-59-42.5-87,34.5s30.1,146.1,81.5,139c28.1-11.3,30.3-21.8,30.3-24.5L233.1,534.6z"/>
	<path class="st11" d="M233.1,534.6c0,0-59-42.5-87,34.5s30.1,146.1,81.5,139c28.1-11.3,30.3-21.8,30.3-24.5L233.1,534.6z"/>
	<path class="st12" d="M233.1,534.6c0,0-59-42.5-87,34.5s30.1,146.1,81.5,139c28.1-11.3,30.3-21.8,30.3-24.5L233.1,534.6z"/>
	<path class="st13" d="M233.1,534.6c0,0-59-42.5-87,34.5s30.1,146.1,81.5,139c28.1-11.3,30.3-21.8,30.3-24.5L233.1,534.6z"/>
</g>
<polygon id="dress" class="st14" points="410.4,904.7 575.4,904.7 917.4,2110.8 155.3,2167.8 "/>
<g id="arms_x2F_legs">
	<g id="arms_x2F_legs_1_">
		<path class="st0" d="M434.6,1243.6l-34.2,480.1l-13.7,95l-24.2-15.2c0,0-80.7,74-271.3,170c0,0,104.7-108.7,118-134l-159.3,39.3
			l100-58l-27.3,3.3c0,0,139.3-97.3,175.3-112l68.3-468.7h68.4V1243.6z"/>
		<polygon class="st0" points="503.9,1892.3 386.8,1818.8 400.4,1723.8 399.6,1735.6 445.9,1781.6 		"/>
		<polygon class="st1" points="654.2,2131.7 642.4,2695.6 863.6,2706.6 574.6,2706.6 554.8,2131.7 		"/>
		<polygon class="st0" points="477.2,2140.7 477.2,2791.7 574.7,2791.7 831.2,2791.7 584.6,2785.7 627.2,2131.7 		"/>
	</g>
	<g id="arms_x2F_legs_2_" class="st3">
		<path class="st4" d="M434.6,1243.6l-34.2,480.1l-13.7,95l-24.2-15.2c0,0-80.7,74-271.3,170c0,0,104.7-108.7,118-134l-159.3,39.3
			l100-58l-27.3,3.3c0,0,139.3-97.3,175.3-112l68.3-468.7h68.4V1243.6z"/>
		<polygon class="st4" points="503.9,1892.3 386.8,1818.8 400.4,1723.8 399.6,1735.6 445.9,1781.6 		"/>
		<polygon class="st5" points="654.2,2131.7 642.4,2695.6 863.6,2706.6 574.6,2706.6 554.8,2131.7 		"/>
		<polygon class="st4" points="477.2,2140.7 477.2,2791.7 574.7,2791.7 831.2,2791.7 584.6,2785.7 627.2,2131.7 		"/>
	</g>
	<g id="arms_x2F_legs_3_" class="st3">
		<path class="st7" d="M434.6,1243.6l-34.2,480.1l-13.7,95l-24.2-15.2c0,0-80.7,74-271.3,170c0,0,104.7-108.7,118-134l-159.3,39.3
			l100-58l-27.3,3.3c0,0,139.3-97.3,175.3-112l68.3-468.7h68.4V1243.6z"/>
		<polygon class="st7" points="503.9,1892.3 386.8,1818.8 400.4,1723.8 399.6,1735.6 445.9,1781.6 		"/>
		<polygon class="st8" points="654.2,2131.7 642.4,2695.6 863.6,2706.6 574.6,2706.6 554.8,2131.7 		"/>
		<polygon class="st7" points="477.2,2140.7 477.2,2791.7 574.7,2791.7 831.2,2791.7 584.6,2785.7 627.2,2131.7 		"/>
	</g>
	<g id="arms_x2F_legs_4_" class="st3">
		<path class="st9" d="M434.6,1243.6l-34.2,480.1l-13.7,95l-24.2-15.2c0,0-80.7,74-271.3,170c0,0,104.7-108.7,118-134l-159.3,39.3
			l100-58l-27.3,3.3c0,0,139.3-97.3,175.3-112l68.3-468.7h68.4V1243.6z"/>
		<polygon class="st9" points="503.9,1892.3 386.8,1818.8 400.4,1723.8 399.6,1735.6 445.9,1781.6 		"/>
		<polygon class="st10" points="654.2,2131.7 642.4,2695.6 863.6,2706.6 574.6,2706.6 554.8,2131.7 		"/>
		<polygon class="st9" points="477.2,2140.7 477.2,2791.7 574.7,2791.7 831.2,2791.7 584.6,2785.7 627.2,2131.7 		"/>
	</g>
</g>
<g id="shirt">
	<path class="st15" d="M401.9,881.9c0,0,96.7,27.3,180.7,0l6,30.7c0,0-60.7,25.3-192,0L401.9,881.9z"/>
	<path class="st15" d="M362.7,1041.5c0,0,45.3-58.5,69.9-46.5c24.6,12,58.1,222,69.1,334.5l-220-12
		C281.7,1317.5,320.7,1100,362.7,1041.5z"/>
	<path class="st16" d="M477.2,2773.9c0,0,99.6,5.5,108.5-5.3l-1.1,17.1l246.6,6h-354V2773.9z"/>
	<path class="st17" d="M642.7,2681.6c0,0-15,6.9-51.5,3.3l-1.4,21.7h273.8l-221.2-11L642.7,2681.6z"/>
</g>
<g id="Hair">
	<g id="hair1">
		<path class="st18" d="M665.4,16.9c0,0-609.1-135.3-648.1,359.7s0,876.1,0,876.1l72-91.3l49.4,112.3l73.6-112.3l77.9,112.3
			c0,0,40.2-172.1,72.4-232.2c0,0,22.3-24.7,25.7-27.7c3.3-3,20-99.1,20-99.1l-11.8-2.2l5.3-30.7c0,0,30.6,6.6,35.8,7.3l7.8-73.2
			c0,0-87.2-11.5-138.4-56.2c0,0-31.7-24.1-44.2-72.7c0,0-24.6,20.8-42.1,21.4s-56.6-10.1-77.6-68.4c0,0-9.6-34.1,0.1-62.1
			c9.6-28,17.1-41.2,35.6-51.2c18.5-10,44,0.4,54.2,7.7l24.8,184.6l102-254l83.5-134.7L463.2,479l103.3-179.6l69.2,70.1l22.4-67.5
			l93.1,126l25.5-106.3l46.5,131.8C823.1,453.5,965.2,139.7,665.4,16.9z"/>
		<path class="st18" d="M683.8,788.8c0,0-26.3,364.8-3.7,484.9l-101.5-358l10.1-3.2l-6-30.7c0,0-13.9,5.3-41.1,9.3l9.9-67.5
			C551.4,823.8,620.5,820.1,683.8,788.8z"/>
	</g>
	<g id="hair1_copy">
		<path class="st19" d="M665.4,16.9c0,0-609.1-135.3-648.1,359.7s0,876.1,0,876.1l72-91.3l49.4,112.3l73.6-112.3l77.9,112.3
			c0,0,40.2-172.1,72.4-232.2c0,0,22.3-24.7,25.7-27.7c3.3-3,20-99.1,20-99.1l-11.8-2.2l5.3-30.7c0,0,30.6,6.6,35.8,7.3l7.8-73.2
			c0,0-87.2-11.5-138.4-56.2c0,0-31.7-24.1-44.2-72.7c0,0-24.6,20.8-42.1,21.4s-56.6-10.1-77.6-68.4c0,0-9.6-34.1,0.1-62.1
			c9.6-28,17.1-41.2,35.6-51.2c18.5-10,44,0.4,54.2,7.7l24.8,184.6l102-254l83.5-134.7L463.2,479l103.3-179.6l69.2,70.1l22.4-67.5
			l93.1,126l25.5-106.3l46.5,131.8C823.1,453.5,965.2,139.7,665.4,16.9z"/>
		<path class="st19" d="M683.8,788.8c0,0-26.3,364.8-3.7,484.9l-101.5-358l10.1-3.2l-6-30.7c0,0-13.9,5.3-41.1,9.3l9.9-67.5
			C551.4,823.8,620.5,820.1,683.8,788.8z"/>
	</g>
	<g id="hair1_copy_2" class="st3">
		<path class="st20" d="M665.4,16.9c0,0-609.1-135.3-648.1,359.7s0,876.1,0,876.1l72-91.3l49.4,112.3l73.6-112.3l77.9,112.3
			c0,0,40.2-172.1,72.4-232.2c0,0,22.3-24.7,25.7-27.7c3.3-3,20-99.1,20-99.1l-11.8-2.2l5.3-30.7c0,0,30.6,6.6,35.8,7.3l7.8-73.2
			c0,0-87.2-11.5-138.4-56.2c0,0-31.7-24.1-44.2-72.7c0,0-24.6,20.8-42.1,21.4s-56.6-10.1-77.6-68.4c0,0-9.6-34.1,0.1-62.1
			c9.6-28,17.1-41.2,35.6-51.2c18.5-10,44,0.4,54.2,7.7l24.8,184.6l102-254l83.5-134.7L463.2,479l103.3-179.6l69.2,70.1l22.4-67.5
			l93.1,126l25.5-106.3l46.5,131.8C823.1,453.5,965.2,139.7,665.4,16.9z"/>
		<path class="st20" d="M683.8,788.8c0,0-26.3,364.8-3.7,484.9l-101.5-358l10.1-3.2l-6-30.7c0,0-13.9,5.3-41.1,9.3l9.9-67.5
			C551.4,823.8,620.5,820.1,683.8,788.8z"/>
	</g>
	<g id="hair1_copy_3" class="st3">
		<path class="st21" d="M665.4,16.9c0,0-609.1-135.3-648.1,359.7s0,876.1,0,876.1l72-91.3l49.4,112.3l73.6-112.3l77.9,112.3
			c0,0,40.2-172.1,72.4-232.2c0,0,22.3-24.7,25.7-27.7c3.3-3,20-99.1,20-99.1l-11.8-2.2l5.3-30.7c0,0,30.6,6.6,35.8,7.3l7.8-73.2
			c0,0-87.2-11.5-138.4-56.2c0,0-31.7-24.1-44.2-72.7c0,0-24.6,20.8-42.1,21.4s-56.6-10.1-77.6-68.4c0,0-9.6-34.1,0.1-62.1
			c9.6-28,17.1-41.2,35.6-51.2c18.5-10,44,0.4,54.2,7.7l24.8,184.6l102-254l83.5-134.7L463.2,479l103.3-179.6l69.2,70.1l22.4-67.5
			l93.1,126l25.5-106.3l46.5,131.8C823.1,453.5,965.2,139.7,665.4,16.9z"/>
		<path class="st21" d="M683.8,788.8c0,0-26.3,364.8-3.7,484.9l-101.5-358l10.1-3.2l-6-30.7c0,0-13.9,5.3-41.1,9.3l9.9-67.5
			C551.4,823.8,620.5,820.1,683.8,788.8z"/>
	</g>
</g>
</svg>
