<?xml version="1.0" encoding="utf-8"?>
<!-- Generator: Adobe Illustrator 22.1.0, SVG Export Plug-In . SVG Version: 6.00 Build 0)  -->
<svg version="1.1" id="Layer_1" xmlns="http://www.w3.org/2000/svg" xmlns:xlink="http://www.w3.org/1999/xlink" x="0px" y="0px"
	 viewBox="0 0 157 148.4" style="enable-background:new 0 0 157 148.4;" xml:space="preserve">
<style type="text/css">
	.st0{fill:#2C2C42;}
	.st1{fill:#03031E;}
	.st2{fill:#338C33;}
	.st3{fill:#4CC14C;}
	.st4{fill:#FFF98A;}
	.st5{fill:#0C0C2B;}
	.st6{fill:#FFFF5A;}
	.st7{fill:#196819;}
</style>
<rect x="3.5" y="55.4" class="st0" width="150" height="93"/>
<path class="st1" d="M122.1,45.3c0.4-58.9-86.6-61.9-87.5,0h9.5c0-48.9,68.5-46.9,68.5,0H122.1z"/>
<path class="st2" d="M40.8,85.2c-5.7,7.5-5,14.8,2,21.9c7.1,6.6,7.4,13.6,1.9,20.9l24.2-2.2c6.8-8.3,5.9-15.6-2-21.9
	c-10.4-6.7-9-13.7-1.9-20.9L40.8,85.2z"/>
<path class="st3" d="M27,79c-8.2,4.5-10.7,11.4-7.4,20.7c3.6,9,0.9,15.4-7.1,19.8l22.6,8.1c9.6-4.6,11.8-11.6,7.4-20.7
	c-6.5-10.4-2.3-16.2,7.1-19.8L27,79z"/>
<path class="st4" d="M32.2,55.6l0-9.2c4.8-2.7,9.6-2.7,14.3,0v9.2H32.2z"/>
<path class="st4" d="M110.2,55.6l0-9.2c4.8-2.7,9.6-2.7,14.3,0v9.2H110.2z"/>
<polygon class="st5" points="78.5,101.4 157,81.5 157,51.9 0,51.9 0,82.6 "/>
<rect x="71.5" y="87.9" class="st6" width="13.5" height="26.5"/>
<ellipse class="st2" cx="30" cy="103.3" rx="6" ry="5.6"/>
<ellipse class="st7" cx="54" cy="105.3" rx="6" ry="5.6"/>
</svg>
