<?xml version="1.0" encoding="utf-8"?>
<!-- Generator: Adobe Illustrator 22.1.0, SVG Export Plug-In . SVG Version: 6.00 Build 0)  -->
<svg version="1.1" id="Layer_1" xmlns="http://www.w3.org/2000/svg" xmlns:xlink="http://www.w3.org/1999/xlink" x="0px" y="0px"
	 viewBox="0 0 445.3 293.5" style="enable-background:new 0 0 445.3 293.5;" xml:space="preserve">
<style type="text/css">
	.st0{fill:#B3B3B3;}
	.st1{fill:#CCCCCC;}
	.st2{fill:#FFFB69;}
	.st3{fill:#FC1D57;}
	.st4{fill:#666666;}
	.st5{fill:#333333;}
</style>
<polygon class="st0" points="137.6,90.5 124.2,90.5 85.8,0 177.8,0 "/>
<path class="st1" d="M427.3,187.5h-32v48h32C447.3,235.5,445.3,187.5,427.3,187.5z"/>
<path class="st2" d="M75.3,187.5h230v-110h-230C31.3,77.5,28.3,187.5,75.3,187.5z"/>
<polygon class="st3" points="445.3,3.5 298.3,3.5 298.3,45.5 395.3,90.5 445.3,45.5 "/>
<rect x="269.3" y="29.5" class="st3" width="128" height="158"/>
<path class="st1" d="M14.3,187.5h32v48h-32C-5.7,235.5-3.7,187.5,14.3,187.5z"/>
<path class="st4" d="M406.3,249.5h-368c-6.6,0-12-5.4-12-12v-43c0-6.6,5.4-12,12-12h368c6.6,0,12,5.4,12,12v43
	C418.3,244.1,412.9,249.5,406.3,249.5z"/>
<circle class="st5" cx="113.8" cy="235" r="58.5"/>
<circle class="st5" cx="319.8" cy="235" r="58.5"/>
</svg>
