<?xml version="1.0" encoding="utf-8"?>
<!-- Generator: Adobe Illustrator 22.1.0, SVG Export Plug-In . SVG Version: 6.00 Build 0)  -->
<svg version="1.1" id="Layer_1" xmlns="http://www.w3.org/2000/svg" xmlns:xlink="http://www.w3.org/1999/xlink" x="0px" y="0px"
	 viewBox="0 0 369.2 221.3" style="enable-background:new 0 0 369.2 221.3;" xml:space="preserve">
<style type="text/css">
	.st0{fill:#1A1A1A;}
	.st1{fill:#333333;}
	.st2{fill:#FF3333;}
	.st3{fill:#2C2CFF;}
	.st4{fill:#FFF431;}
	.st5{fill:#3FFF24;}
	.st6{fill:#8585FF;}
	.st7{fill:#B3B3B3;}
</style>
<path d="M174.1,2.4h20c3.9,0,7,3.1,7,7v0c0,3.8-3.1,7-7,7h-20c-3.9,0-7-3.1-7-7v0C167.1,5.5,170.3,2.4,174.1,2.4z"/>
<path class="st0" d="M223.1,8.4h-76c-6,0-11,4.9-11,11v4c0,6,4.9,11,11,11h76c6,0,11-4.9,11-11v-4C234.1,13.3,229.2,8.4,223.1,8.4z"
	/>
<ellipse transform="matrix(0.3446 -0.9388 0.9388 0.3446 -58.0526 138.3994)" class="st1" cx="70.1" cy="110.8" rx="115.5" ry="61.5"/>
<ellipse transform="matrix(0.9388 -0.3446 0.3446 0.9388 -19.6747 110.1199)" class="st1" cx="300" cy="110.4" rx="60.4" ry="115.5"/>
<path class="st1" d="M99.5,16.4c56.6,14,113.3,14,169.9,0v142.5c-58.4-24.1-115-23.4-169.9,0V16.4z"/>
<circle class="st0" cx="97.6" cy="53.9" r="27.5"/>
<circle class="st2" cx="287.1" cy="37.4" r="11"/>
<circle class="st3" cx="265.1" cy="59.4" r="11"/>
<circle class="st4" cx="287.1" cy="79.4" r="11"/>
<circle class="st5" cx="309.1" cy="59.4" r="11"/>
<circle class="st6" cx="184.1" cy="54.4" r="12"/>
<circle class="st7" cx="97.1" cy="53.4" r="21"/>
<path class="st7" d="M132.8,130.4h-2.3c-4.1,0-7.5-3.4-7.5-7.5v-30c0-4.1,3.4-7.5,7.5-7.5h2.3c4.1,0,7.5,3.4,7.5,7.5v30
	C140.3,127,136.9,130.4,132.8,130.4z"/>
<path class="st7" d="M109.1,109v-2.3c0-4.1,3.4-7.5,7.5-7.5h30c4.1,0,7.5,3.4,7.5,7.5v2.3c0,4.1-3.4,7.5-7.5,7.5h-30
	C112.5,116.5,109.1,113.1,109.1,109z"/>
<circle class="st0" cx="241.6" cy="107.9" r="27.5"/>
<circle class="st7" cx="241.1" cy="107.4" r="21"/>
</svg>
