<?xml version="1.0" encoding="utf-8"?>
<!-- Generator: Adobe Illustrator 22.1.0, SVG Export Plug-In . SVG Version: 6.00 Build 0)  -->
<svg version="1.1" id="Layer_1" xmlns="http://www.w3.org/2000/svg" xmlns:xlink="http://www.w3.org/1999/xlink" x="0px" y="0px"
	 viewBox="0 0 251 100" style="enable-background:new 0 0 251 100;" xml:space="preserve">
<style type="text/css">
	.st0{fill:#999999;}
	.st1{fill:#333333;}
</style>
<rect x="65" y="41.7" width="124" height="17"/>
<path class="st0" d="M236,36.7h12c4,8.8,4,17.8,0,27h-12V36.7z"/>
<path class="st0" d="M15,36.7H3c-4,8.8-4,17.8,0,27h12V36.7z"/>
<path class="st1" d="M7.5,5.2c20.3-6.9,40.7-6.9,61,0v90c-20.3,6.4-40.7,6.4-61,0V5.2z"/>
<path class="st1" d="M182,5.2c20.3-6.9,40.7-6.9,61,0v90c-20.3,6.4-40.7,6.4-61,0V5.2z"/>
</svg>
